 <svg  version="1.0" xmlns="http://www.w3.org/2000/svg"  width="200" height="200" viewBox="0 0 450.000000 446.000000"  preserveAspectRatio="xMidYMid meet">  <g transform="translate(0.000000,446.000000) scale(0.050000,-0.050000)" fill="#b0a40b" stroke="none"> <path d="M6226 8740 c-24 -10 -58 -40 -76 -67 -20 -31 -45 -45 -67 -39 -54 13 -84 -38 -103 -176 -10 -71 -36 -150 -59 -181 -50 -68 -51 -78 -2 -161 51 -88 44 -282 -7 -198 -6 9 -51 27 -100 39 -60 15 -103 42 -131 81 -61 86 -50 94 30 24 115 -101 131 -83 79 91 -40 135 -108 207 -197 207 -37 0 -103 15 -146 33 -82 35 -202 40 -232 10 -27 -27 123 -112 187 -107 66 5 93 -26 46 -52 -24 -13 -27 -23 -9 -33 13 -8 41 1 62 20 38 34 39 33 39 -15 0 -145 103 -304 251 -389 21 -12 33 -29 26 -36 -8 -8 -66 20 -130 62 -65 42 -149 95 -189 117 -280 157 -318 182 -318 216 0 19 16 40 35 46 115 37 115 39 2 92 -167 79 -356 57 -357 -41 -1 -27 -4 -28 -18 -5 -13 20 -68 28 -200 29 -138 1 -182 8 -182 28 0 15 -21 48 -47 74 -36 36 -42 55 -27 82 13 24 13 30 -3 21 -14 -9 -23 1 -23 27 0 22 -7 41 -16 41 -22 0 -84 -110 -84 -148 0 -18 -17 -32 -38 -32 -34 0 -76 -77 -45 -82 106 -18 147 -10 165 29 17 39 18 38 11 -11 -10 -76 11 -100 100 -106 42 -4 121 -21 174 -40 53 -18 103 -26 110 -19 7 8 2 18 -12 23 -37 14 -30 42 14 56 57 18 121 -23 119 -76 0 -24 -6 -33 -11 -19 -6 14 -19 25 -29 25 -34 0 -18 -67 27 -117 48 -52 13 -41 -55 18 -51 44 -270 98 -489 120 -94 10 -220 31 -281 48 -142 40 -143 39 -129 -18 11 -41 1 -55 -64 -90 l-77 -42 76 6 c96 9 241 -136 150 -149 -38 -5 -31 -13 46 -50 52 -25 111 -39 135 -33 31 9 43 3 43 -22 0 -25 -11 -30 -40 -21 -22 7 -64 17 -93 22 -29 6 -68 17 -85 27 -62 32 -207 23 -172 -12 16 -16 30 -38 30 -49 0 -22 177 -138 212 -138 13 0 33 27 45 59 16 47 32 60 77 60 31 0 74 1 96 2 119 5 310 -91 205 -104 -14 -2 -34 -5 -45 -8 -11 -2 -32 -5 -46 -7 -18 -1 -20 -12 -6 -38 27 -51 -47 -124 -126 -124 -47 0 -50 -47 -5 -96 45 -49 30 -108 -31 -120 -39 -8 -81 83 -51 113 16 16 12 34 -16 64 -28 31 -30 40 -8 35 19 -4 27 7 23 34 -12 79 -24 90 -95 90 -39 0 -87 8 -105 18 -21 10 -54 9 -84 -3 -42 -18 -44 -22 -14 -30 29 -7 34 -21 24 -67 -10 -41 -6 -58 13 -58 15 0 1 -14 -31 -30 -32 -17 -62 -27 -67 -22 -31 32 -57 -41 -30 -83 16 -25 25 -63 19 -85 -12 -46 9 -51 66 -15 48 30 130 -36 109 -89 -13 -36 -84 -61 -99 -36 -6 9 -28 12 -50 6 -75 -20 -176 134 -147 222 8 23 15 53 16 66 0 13 21 42 46 66 83 77 42 103 -88 56 -60 -21 -66 -30 -58 -90 4 -36 -1 -71 -13 -78 -11 -7 -15 -39 -8 -72 6 -33 2 -77 -9 -98 -14 -26 -14 -38 0 -38 12 0 21 -8 21 -18 0 -10 -18 -14 -40 -8 -32 9 -40 1 -40 -40 0 -28 -10 -54 -23 -58 -13 -5 -19 -20 -14 -36 10 -30 80 27 103 83 9 21 19 18 44 -13 17 -22 38 -38 45 -34 44 18 20 -106 -34 -171 -33 -40 -55 -78 -49 -84 6 -6 26 7 45 29 18 23 65 63 103 90 39 27 92 69 120 94 27 25 55 46 62 46 7 0 36 23 66 50 57 52 92 64 92 30 0 -11 -7 -20 -16 -20 -24 0 -61 -120 -64 -210 -2 -44 -5 -109 -6 -145 -2 -36 -10 -65 -18 -65 -9 0 -16 -18 -16 -40 0 -22 -9 -40 -20 -40 -11 0 -20 14 -20 30 0 17 -9 30 -20 30 -12 0 -9 19 7 45 55 88 61 275 9 275 -37 0 -73 -55 -81 -122 l-7 -68 -24 50 c-20 42 -23 43 -22 10 7 -123 -24 -181 -48 -90 -6 22 -21 40 -34 40 -13 0 -20 -12 -14 -28 6 -15 2 -36 -9 -47 -14 -14 -13 -25 1 -34 36 -22 25 -51 -19 -51 -24 0 -36 -9 -29 -21 8 -12 51 -16 102 -10 102 12 117 -15 25 -47 -45 -16 -70 -16 -89 -1 -18 15 -48 15 -102 0 -42 -11 -89 -20 -106 -19 -16 1 -8 8 18 15 53 15 99 73 76 95 -7 8 -31 -1 -52 -21 -25 -22 -56 -30 -86 -23 -25 6 -35 6 -21 0 38 -17 30 -56 -21 -105 -66 -61 -81 -53 -41 22 19 36 38 83 41 105 4 22 26 92 48 156 26 73 35 125 23 140 -45 60 12 293 82 338 14 9 7 30 -23 61 -47 51 -61 144 -19 130 25 -8 87 40 71 55 -4 5 -39 1 -77 -9 -38 -10 -154 -23 -258 -30 -142 -8 -197 -19 -220 -45 -28 -30 -28 -31 0 -11 18 13 42 16 57 6 38 -23 250 -8 258 18 9 26 78 28 94 2 12 -20 -59 -103 -85 -99 -41 7 -61 -6 -71 -42 -6 -22 -20 -40 -32 -40 -29 0 -29 54 0 64 15 5 12 16 -7 32 -24 20 -35 18 -57 -10 -24 -28 -24 -31 0 -17 19 11 24 8 18 -11 -6 -15 -26 -25 -45 -22 -54 10 -26 -43 30 -56 42 -10 44 -14 14 -25 -19 -8 -35 -28 -35 -44 0 -57 -158 -5 -199 65 -14 23 -25 27 -36 12 -8 -12 -45 -23 -82 -24 l-68 -1 39 43 c22 24 60 74 85 111 l46 66 -148 -5 c-271 -10 -437 18 -437 74 0 26 -9 48 -20 48 -11 0 -20 14 -20 30 0 17 -13 30 -30 30 -16 0 -30 7 -30 15 0 33 -84 69 -107 46 -25 -25 61 -107 91 -88 29 17 16 -54 -19 -107 -26 -40 -28 -55 -9 -61 14 -5 50 -29 80 -53 84 -69 203 -132 256 -137 64 -5 61 -39 -7 -78 -62 -36 -145 -18 -145 31 0 43 -37 59 -71 32 -23 -20 -32 -15 -47 23 -51 131 -583 218 -842 138 -129 -39 -131 -45 -82 -166 78 -192 265 -333 485 -365 102 -15 144 -64 155 -185 1 -14 12 -25 24 -25 12 0 17 14 10 31 -8 21 -4 26 12 16 14 -8 46 -17 72 -20 27 -2 65 -20 86 -39 36 -32 40 -32 83 4 25 21 39 30 31 20 -8 -9 -1 -30 15 -46 47 -47 33 -64 -35 -45 -35 10 -69 11 -75 2 -6 -9 -27 -22 -47 -29 -20 -8 -32 -21 -26 -31 14 -22 -60 -58 -148 -71 -205 -31 -320 -62 -320 -86 0 -21 -8 -22 -40 -1 -47 29 -54 59 -10 42 49 -18 34 27 -23 72 -57 44 -52 77 7 50 43 -20 206 -24 206 -6 0 7 34 19 75 27 41 8 64 19 50 24 -14 5 -25 22 -25 38 0 23 -9 25 -40 8 -53 -29 -50 -17 14 52 46 50 49 59 18 65 -21 4 -31 18 -24 35 6 15 3 28 -6 28 -10 0 -23 -13 -29 -30 -14 -36 -280 -43 -393 -10 -120 36 -262 26 -400 -26 l-130 -50 -15 -97 c-12 -82 -8 -102 24 -129 21 -18 59 -76 84 -130 25 -54 58 -111 73 -126 15 -15 22 -47 16 -72 -10 -37 -3 -45 43 -46 220 -8 287 -18 318 -48 30 -31 27 -32 -49 -22 -83 11 -264 -55 -264 -96 0 -32 -57 -19 -78 17 -16 28 -25 30 -45 10 -64 -64 -147 -18 -170 93 -9 46 -19 58 -34 43 -11 -11 -51 -21 -87 -21 -71 0 -84 -21 -36 -60 16 -14 30 -43 30 -65 0 -56 -108 -33 -172 35 -56 60 -68 61 -169 10 -197 -101 17 -187 461 -186 495 2 453 -5 515 85 64 92 93 105 63 27 -19 -51 -18 -52 16 -23 44 38 106 61 106 40 0 -22 -59 -97 -59 -76 -1 10 -15 7 -31 -7 -17 -14 -36 -21 -42 -14 -34 33 -228 -233 -228 -311 0 -79 58 -279 84 -291 8 -4 9 -20 3 -35 -15 -38 21 -37 53 1 13 16 43 25 67 21 24 -4 48 -9 53 -10 6 -1 -1 -9 -14 -17 -45 -28 -8 -95 55 -100 81 -6 75 12 -51 158 -159 183 -174 198 -203 198 -59 0 -22 33 62 56 67 17 87 31 78 54 -6 16 -1 30 11 30 12 0 22 14 22 30 0 17 14 30 31 30 36 0 -34 -148 -91 -194 -21 -17 -22 -25 -5 -25 14 -1 25 -14 25 -29 0 -55 68 -57 111 -2 57 71 112 50 105 -42 -6 -93 11 -100 93 -37 70 53 70 128 0 101 -31 -11 -53 112 -24 131 11 7 14 22 7 33 -7 11 -3 24 8 27 12 5 13 29 1 67 -14 50 -18 52 -19 15 -2 -47 -30 -60 -53 -24 -7 11 -1 34 12 50 26 32 14 61 -17 41 -24 -14 -124 -260 -124 -302 0 -18 -18 -30 -45 -29 -41 0 -41 2 -10 21 20 11 30 29 24 40 -14 22 41 149 72 168 30 19 22 50 -14 50 -30 0 -29 4 3 40 21 23 47 37 59 33 50 -18 134 47 102 79 -41 41 -43 123 -3 89 24 -19 27 -16 18 19 -9 34 -21 40 -67 30 -52 -12 -56 -9 -50 44 4 42 15 55 43 51 26 -4 51 19 81 75 25 46 34 80 22 80 -13 0 -5 13 16 29 45 35 24 41 -33 10 -21 -12 -34 -30 -27 -40 15 -25 -34 -74 -83 -82 -26 -5 -37 4 -35 28 1 19 -10 35 -25 35 -15 0 -28 -13 -28 -30 0 -36 -33 -40 -47 -5 -6 15 -10 11 -11 -10 -2 -42 -42 -48 -42 -6 0 22 -13 24 -65 10 -89 -26 -104 -24 -75 11 19 23 19 30 1 30 -15 0 -19 17 -13 45 7 25 6 34 0 20 -6 -14 -26 -25 -44 -25 -24 0 -19 9 17 34 27 19 61 46 75 60 15 14 36 26 47 26 10 0 14 9 7 20 -20 32 10 65 37 42 15 -12 35 -13 54 -1 38 24 119 24 119 1 0 -10 -11 -22 -25 -27 -20 -7 -20 -15 0 -39 22 -26 19 -29 -20 -23 -31 5 -59 -11 -92 -53 -56 -73 -41 -74 155 -11 83 26 220 68 302 91 83 24 219 65 304 92 193 60 256 62 256 9 0 -33 -10 -38 -55 -30 -65 12 -169 -14 -180 -45 -10 -31 80 -49 101 -20 13 19 19 18 27 -1 6 -14 19 -20 29 -14 22 14 23 -12 1 -47 -9 -14 -29 -23 -43 -20 -15 3 -33 -16 -41 -44 -14 -48 -15 -48 -17 -5 -5 104 -38 34 -50 -107 -12 -128 -9 -159 19 -189 46 -51 129 -234 134 -295 3 -31 27 -65 65 -89 l60 -39 -55 9 c-59 10 -85 -71 -30 -91 14 -5 1 -8 -28 -6 -41 1 -51 11 -48 46 3 24 -6 48 -21 54 -14 5 -37 49 -50 96 -32 113 -58 140 -58 61 0 -34 11 -74 25 -89 35 -36 45 -105 13 -85 -18 12 -20 6 -7 -23 9 -21 17 -85 18 -143 0 -77 7 -103 26 -96 62 24 -17 -185 -121 -320 l-84 -109 -44 135 c-27 80 -45 186 -45 260 l-1 126 -85 -44 c-47 -25 -125 -50 -175 -56 -76 -9 -91 -19 -97 -59 -5 -37 1 -45 25 -35 47 18 39 -17 -13 -54 -42 -30 -42 -34 -10 -54 23 -14 35 -46 35 -96 0 -48 15 -91 40 -118 48 -52 51 -74 10 -58 -65 25 -112 -57 -79 -136 16 -39 37 -71 46 -71 26 0 113 131 132 200 15 54 102 224 123 242 41 34 36 -7 -11 -106 -38 -77 -36 -153 1 -93 13 20 17 17 18 -14 0 -22 14 -61 32 -86 l32 -45 48 52 c26 29 48 60 48 69 0 9 14 22 30 28 17 7 30 26 30 42 0 17 12 31 27 31 15 0 43 18 63 40 20 22 50 40 67 40 25 0 24 -5 -5 -26 -22 -16 -37 -54 -38 -97 -2 -65 -8 -73 -97 -104 -52 -19 -107 -46 -121 -60 -15 -15 -40 -32 -56 -38 -17 -7 -5 -13 27 -13 44 -2 54 -10 45 -34 -7 -17 -12 -44 -12 -60 0 -15 -14 -28 -31 -28 -16 0 -36 -15 -43 -32 -10 -28 -15 -27 -35 10 -20 37 -27 39 -60 15 -36 -26 -35 -30 16 -97 33 -44 49 -84 41 -104 -11 -29 -2 -31 68 -20 l81 13 -7 -88 c-5 -48 -8 -112 -9 -142 -2 -117 -119 -41 -120 79 -1 35 -10 69 -21 76 -11 7 -20 38 -20 70 0 93 -27 86 -158 -40 -107 -102 -121 -124 -103 -158 27 -50 27 -108 1 -92 -11 7 -20 34 -20 61 0 55 -6 58 -61 28 -65 -34 -56 -199 11 -199 31 0 50 11 50 30 0 17 16 30 35 30 30 -1 31 -3 5 -20 -24 -16 -22 -19 14 -20 25 0 55 -19 67 -42 29 -55 4 -79 -32 -30 -33 45 -57 30 -140 -89 -65 -94 -59 -107 33 -76 75 25 201 134 262 227 28 44 36 48 27 17 -7 -24 -3 -49 8 -56 26 -17 28 -71 2 -71 -11 0 -74 -35 -141 -79 -67 -43 -151 -84 -186 -92 -35 -8 -70 -23 -77 -35 -8 -13 -27 -7 -49 15 -35 35 -37 34 -53 -15 -10 -28 -30 -56 -46 -62 -26 -9 -26 -4 0 46 16 31 23 64 15 72 -8 9 11 10 41 2 62 -14 74 15 20 46 -33 20 -33 21 0 21 19 1 34 8 32 16 -2 8 8 42 21 75 25 60 14 190 -16 190 -38 0 -80 -74 -69 -121 10 -40 8 -45 -14 -24 -38 35 -54 31 -69 -15 -7 -22 -29 -40 -48 -40 -20 0 -52 -18 -72 -40 -20 -22 -43 -40 -51 -40 -16 0 59 93 146 180 30 31 55 65 55 77 0 11 17 26 38 32 101 32 94 77 -8 62 -240 -35 -245 -34 -233 53 1 7 6 69 11 138 10 134 36 182 76 142 29 -29 116 -32 116 -4 0 11 -9 20 -20 20 -11 0 -20 14 -20 30 0 17 -9 30 -20 30 -34 0 -22 45 23 94 76 80 4 50 -81 -34 -44 -44 -85 -80 -91 -80 -24 0 -9 42 29 80 58 58 50 82 -20 57 -33 -12 -60 -28 -60 -37 0 -9 -12 -20 -28 -26 -17 -7 -26 2 -25 23 2 20 -9 30 -27 26 -16 -5 -73 -8 -125 -7 -58 0 -95 -9 -95 -23 0 -13 -9 -10 -19 7 -25 39 11 52 190 69 76 8 229 25 339 40 110 14 207 22 215 17 23 -13 18 30 -5 44 -48 29 -103 182 -114 312 -7 76 -20 138 -29 138 -27 0 -58 -95 -43 -133 9 -23 5 -29 -11 -19 -13 8 -23 2 -23 -15 0 -16 -28 -39 -63 -51 -63 -22 -106 -13 -64 14 81 53 74 144 -11 144 -34 0 -57 11 -59 30 -11 87 -9 102 35 262 16 58 15 80 -3 92 -14 8 -16 16 -6 16 11 0 0 14 -25 31 -62 44 -154 31 -154 -21 0 -22 19 -48 42 -58 137 -61 9 -360 -188 -439 -89 -36 -104 -49 -93 -83 45 -145 -4 -250 -136 -289 -47 -14 -98 -30 -115 -35 -20 -6 -4 -23 48 -49 49 -26 82 -33 90 -20 19 31 133 38 127 8 -3 -14 4 -25 15 -25 11 0 19 -7 18 -15 -2 -8 -1 -22 2 -30 3 -8 6 -26 8 -40 1 -14 22 -24 46 -24 24 1 40 -5 35 -13 -5 -8 10 -29 35 -46 43 -30 43 -33 10 -102 -46 -96 -66 -88 -82 30 -8 59 -24 100 -38 100 -14 0 -59 23 -101 51 -99 68 -167 35 -84 -41 26 -25 54 -78 62 -118 7 -39 21 -67 30 -62 20 13 119 -31 119 -52 0 -28 119 -76 133 -54 7 13 44 -13 89 -61 42 -46 91 -83 109 -83 18 0 29 -11 24 -25 -5 -14 -36 -25 -69 -26 -34 0 -74 -10 -89 -22 -32 -26 -187 -56 -252 -49 -40 4 -45 -4 -45 -79 l0 -83 81 8 c70 6 77 4 46 -18 -19 -14 -59 -26 -89 -26 -30 0 -68 -5 -84 -11 -15 -6 -57 13 -91 42 l-63 53 -40 -47 c-50 -60 -50 -76 0 -63 22 6 40 1 40 -12 0 -28 -65 -29 -94 0 -12 12 -37 19 -55 15 -26 -6 -22 -18 26 -67 117 -121 165 -153 195 -128 23 19 28 10 28 -48 0 -78 4 -82 84 -101 46 -11 53 -8 46 27 -8 42 18 55 40 20 25 -40 172 -103 197 -84 44 35 153 21 153 -19 0 -20 10 -37 22 -37 12 0 17 13 12 28 -7 18 6 31 37 37 58 11 63 -9 12 -48 -31 -23 -35 -46 -25 -157 12 -123 14 -128 42 -85 33 51 65 61 47 15 -6 -16 -1 -30 11 -30 22 0 26 13 30 90 1 24 18 42 42 46 22 3 50 25 63 50 228 448 286 510 287 311 0 -30 5 -67 11 -83 8 -19 -7 -32 -46 -40 l-58 -12 19 -156 c18 -156 52 -219 108 -197 37 14 72 -59 40 -86 -30 -24 -62 -7 -80 42 -10 26 -26 33 -61 24 -52 -13 -81 27 -60 81 7 18 -8 46 -36 68 -54 44 -85 35 -71 -20 6 -23 0 -38 -17 -38 -14 0 -38 -31 -52 -70 -14 -38 -32 -70 -41 -70 -9 0 -16 -17 -16 -39 0 -44 -31 -71 -49 -43 -6 11 -3 25 9 32 11 7 19 32 18 56 -2 33 -5 35 -12 10 -11 -43 -83 -67 -112 -38 -38 38 -90 24 -130 -33 -33 -46 -35 -59 -13 -80 38 -35 64 -31 75 10 8 31 10 31 12 -3 1 -21 -31 -81 -72 -135 -72 -94 -106 -119 -106 -77 0 11 9 20 20 20 72 0 -27 85 -125 108 -49 11 -55 7 -55 -39 0 -147 102 -222 360 -263 236 -38 372 -103 390 -185 13 -62 15 -63 63 -31 40 26 62 28 116 10 36 -12 77 -19 91 -16 27 7 121 -221 130 -313 6 -71 50 -95 50 -28 0 26 5 79 11 117 8 52 -1 88 -34 140 -25 39 -46 75 -48 80 -1 6 -10 26 -18 46 -22 49 3 68 51 38 22 -14 48 -20 58 -14 10 6 34 -18 53 -54 44 -83 59 -36 27 82 -19 73 -28 82 -81 82 -35 0 -65 13 -72 30 -6 17 -24 30 -39 30 -38 0 -36 60 3 88 17 13 34 49 38 80 3 31 15 62 25 69 10 7 25 30 33 51 8 21 20 31 28 24 23 -23 25 -155 3 -195 -13 -25 -13 -37 1 -37 12 0 21 -17 21 -39 0 -21 10 -45 23 -53 30 -19 7 316 -26 378 -17 31 -17 44 0 50 13 4 23 25 23 46 0 45 13 46 80 9 34 -19 58 -21 74 -8 37 31 59 6 74 -83 13 -84 32 -98 71 -52 16 20 16 33 2 41 -12 8 -21 31 -21 53 0 22 -8 35 -18 29 -11 -6 -29 18 -41 55 -16 49 -41 74 -96 95 -41 16 -83 32 -93 36 -10 5 -10 -3 -2 -17 10 -17 8 -21 -5 -13 -65 40 13 106 132 111 41 2 44 -3 23 -28 -14 -17 -20 -37 -13 -44 8 -7 25 3 40 23 31 43 43 29 61 -72 7 -40 45 -138 84 -218 44 -90 73 -183 78 -247 11 -146 52 -228 180 -363 158 -166 178 -198 152 -246 -16 -30 -15 -42 3 -49 14 -5 19 -15 11 -24 -51 -55 -456 379 -456 488 0 41 -41 102 -68 102 -6 0 -20 -29 -31 -65 l-21 -65 9 74 c6 53 -3 88 -32 125 -41 52 -10 76 37 29 29 -29 44 1 32 65 -7 35 -34 65 -83 90 -40 20 -76 44 -80 52 -3 8 -15 15 -25 15 -34 0 -18 -80 22 -115 49 -41 52 -85 6 -85 -27 0 -23 -11 20 -56 65 -67 69 -91 12 -73 -37 11 -40 7 -27 -34 14 -45 63 -95 94 -96 33 -2 16 -181 -17 -181 -32 0 -32 23 2 106 13 31 9 33 -36 12 -64 -29 -72 -60 -56 -235 10 -107 7 -143 -11 -143 -14 0 -50 -22 -81 -48 l-56 -49 40 -46 c42 -50 55 -70 140 -233 30 -57 62 -104 72 -104 10 0 18 -18 18 -40 0 -35 -5 -37 -40 -15 -22 13 -40 39 -40 57 0 23 -25 37 -85 46 -47 8 -106 28 -132 45 -25 16 -52 24 -60 17 -18 -18 155 -167 212 -182 57 -16 56 -39 -7 -227 -49 -145 -50 -157 -21 -227 45 -108 73 -113 215 -39 7 4 18 -12 24 -34 5 -23 20 -41 32 -41 27 0 29 33 4 49 -35 22 3 88 65 114 35 14 88 53 118 86 48 52 55 55 55 20 0 -52 101 -222 183 -309 36 -38 65 -74 64 -80 -1 -5 -8 -36 -15 -67 -19 -80 18 -50 66 53 21 46 75 121 118 166 l79 81 233 -5 c128 -3 241 -11 250 -17 24 -15 82 8 82 32 0 19 -16 26 -103 45 -29 6 -74 34 -100 61 -26 28 -66 50 -90 51 -64 0 -99 51 -53 77 28 16 31 29 15 55 -25 41 -136 53 -119 14 5 -14 15 -39 22 -55 13 -33 -129 -176 -162 -164 -55 20 -102 -27 -140 -139 -22 -65 -49 -113 -60 -108 -11 6 -17 19 -13 30 14 40 7 423 -10 590 -16 160 -20 170 -62 165 -55 -6 -59 26 -7 54 87 47 57 189 -38 176 -16 -2 -42 4 -57 13 -21 13 -24 7 -13 -27 12 -39 8 -43 -28 -32 -36 12 -42 6 -42 -48 0 -33 9 -61 20 -61 11 0 20 -13 20 -30 0 -16 -17 -30 -39 -30 -47 0 -65 -26 -73 -108 -7 -58 -5 -60 23 -23 16 21 29 48 29 60 0 11 -9 8 -20 -9 -12 -18 -20 -20 -20 -6 0 38 33 48 59 17 24 -29 9 -56 -94 -163 -49 -50 -58 -107 -23 -142 29 -29 3 -145 -35 -160 -56 -21 -79 141 -28 203 13 16 18 39 10 52 -25 41 -93 -144 -79 -217 11 -62 10 -64 -29 -40 -23 14 -41 30 -41 36 1 29 61 204 89 258 19 37 27 82 19 112 -8 32 -4 50 11 50 13 0 17 -10 9 -23 -9 -14 -5 -18 9 -9 48 30 85 130 64 171 -31 56 -26 152 9 181 17 14 30 41 30 60 0 82 169 82 220 0 13 -21 34 -22 103 -4 48 12 119 28 157 35 39 7 174 51 300 98 127 47 257 91 290 99 33 8 77 19 98 25 28 9 35 4 26 -19 -6 -17 1 -42 17 -55 16 -13 27 -39 24 -57 -4 -26 19 -34 120 -42 70 -6 123 -19 120 -30 -3 -11 -51 -17 -110 -13 -95 6 -105 3 -105 -35 0 -49 25 -54 60 -12 32 38 80 39 80 1 0 -16 16 -38 35 -49 29 -17 24 -21 -28 -21 -51 -1 -73 -15 -107 -71 -48 -78 -64 -84 -100 -40 -28 33 -151 41 -169 11 -7 -11 -24 -15 -38 -9 -111 42 -183 -103 -90 -181 31 -27 57 -61 57 -77 0 -35 56 -85 74 -67 7 7 -4 31 -24 53 -36 40 -22 53 25 23 37 -23 24 -123 -16 -123 -17 0 -69 32 -115 72 -90 77 -108 58 -44 -47 21 -35 34 -78 27 -95 -17 -46 159 -201 270 -237 100 -33 134 -25 77 17 -41 29 4 110 60 110 15 0 26 9 26 20 0 11 -25 20 -55 21 -47 0 -50 3 -20 21 19 11 46 14 60 6 14 -8 18 -7 10 2 -17 19 131 90 187 90 47 0 48 -18 3 -52 -32 -24 -30 -27 20 -27 61 -1 66 13 32 88 -27 59 -42 64 -227 82 -130 12 -137 11 -100 -18 22 -18 31 -32 20 -33 -11 -1 -54 -6 -95 -12 -47 -7 -75 -3 -75 10 0 12 9 22 20 22 35 0 21 157 -20 225 -22 36 -40 71 -40 79 0 15 120 -29 203 -75 67 -37 79 -37 64 1 -8 21 -2 27 19 19 17 -7 49 6 72 29 23 23 57 42 76 42 29 0 29 4 -5 29 -38 29 -38 30 6 30 25 1 45 -11 45 -26 0 -15 23 -37 50 -49 77 -36 66 -90 -15 -75 -64 12 -64 12 -16 -16 55 -32 113 -10 133 52 20 65 108 25 108 -49 0 -34 -20 -45 -75 -37 -30 3 -34 -93 -4 -103 32 -10 -1 -76 -38 -76 -45 1 -136 74 -117 93 9 9 22 6 30 -6 10 -16 21 -15 38 3 28 30 -10 55 -89 59 -56 3 -45 -47 27 -119 26 -26 48 -61 48 -76 0 -60 92 -75 212 -33 124 42 291 54 255 18 -12 -12 -59 -25 -106 -29 -124 -11 -186 -73 -101 -100 39 -12 51 -109 14 -112 -42 -3 -134 28 -134 45 0 81 -201 111 -345 50 -95 -39 -94 -55 5 -97 47 -19 80 -47 80 -66 0 -18 10 -26 21 -19 20 12 179 -79 179 -103 0 -20 -180 4 -204 28 -13 13 -33 24 -45 23 -12 0 -5 -9 14 -21 34 -20 47 -79 23 -104 -7 -6 -35 3 -62 20 -42 28 -52 29 -67 4 -15 -24 -23 -23 -53 7 -33 33 -32 35 11 35 25 0 40 9 33 20 -7 11 8 20 32 20 25 0 39 6 32 12 -42 43 -185 8 -249 -61 -50 -52 -84 -71 -131 -71 -58 0 -60 -2 -30 -33 35 -35 39 -18 -61 -282 -44 -118 -35 -128 49 -55 32 27 69 50 83 50 14 0 25 8 25 17 0 9 25 16 55 17 34 0 126 48 245 129 105 71 204 136 220 143 17 8 111 69 210 134 99 66 218 140 265 164 47 24 85 51 85 60 0 9 14 16 30 16 17 0 30 8 30 18 0 9 18 22 40 28 35 9 37 5 15 -33 -13 -24 -22 -48 -20 -54 1 -7 5 -63 7 -126 3 -71 13 -111 26 -106 23 8 24 41 4 122 -16 62 26 70 63 12 29 -47 -13 -167 -72 -204 -23 -14 -33 -39 -28 -67 5 -28 -11 -65 -44 -102 l-53 -58 12 70 c7 39 18 88 24 110 10 40 10 40 -23 0 -36 -43 -28 93 8 140 38 50 61 156 39 183 -30 35 -58 35 -58 -1 0 -16 -81 -81 -180 -145 -108 -69 -177 -126 -171 -141 5 -13 1 -30 -10 -37 -10 -6 -19 -29 -19 -51 0 -22 -9 -35 -20 -28 -21 13 -18 65 7 105 28 46 -39 27 -87 -25 -26 -28 -57 -50 -69 -50 -12 0 -22 -35 -22 -80 0 -44 8 -80 17 -80 9 0 11 -8 5 -18 -6 -10 3 -23 19 -29 23 -9 25 -23 9 -65 -27 -72 -16 -77 69 -29 40 23 102 41 138 41 43 0 73 13 90 41 14 22 34 35 45 29 10 -7 19 -3 19 9 0 12 -23 32 -50 45 -56 25 -67 76 -17 76 19 0 49 -14 68 -31 32 -29 38 -26 78 30 97 136 95 -8 -2 -207 -32 -65 -54 -122 -49 -126 21 -22 129 58 140 103 14 57 42 67 59 21 33 -84 101 -9 96 105 -5 109 34 145 160 145 51 0 59 6 46 35 -8 19 -19 62 -24 96 l-8 61 136 -8 c111 -7 146 -18 185 -57 58 -58 119 -76 255 -77 57 0 96 -5 87 -10 -9 -6 20 -28 65 -50 87 -42 155 -132 155 -204 0 -24 9 -49 20 -56 20 -13 28 39 25 176 -2 64 3 72 27 53 23 -20 28 -15 28 25 0 33 -25 67 -80 107 -43 33 -79 73 -78 89 1 20 4 22 11 5 6 -14 23 -25 39 -25 26 0 208 -165 208 -188 0 -6 -13 -6 -30 1 -69 26 3 -193 95 -288 56 -58 134 -93 106 -47 -21 35 11 78 50 67 42 -10 54 -45 16 -45 -13 0 -19 -5 -13 -10 18 -19 76 13 76 42 0 15 8 28 18 28 64 0 129 407 83 517 -14 34 -20 76 -14 93 7 16 3 30 -8 30 -10 0 -19 17 -19 38 0 39 -37 62 -100 62 -43 0 -74 -38 -47 -57 61 -43 97 -183 47 -183 -9 0 -9 -29 0 -65 28 -114 41 -235 24 -235 -9 0 -28 44 -42 98 -26 102 -48 128 -246 279 -120 91 -166 93 -150 7 13 -66 -2 -104 -40 -104 -22 0 -28 15 -21 50 10 54 -4 63 -40 27 -28 -28 -147 59 -135 98 5 14 0 25 -11 25 -10 0 -19 9 -19 20 0 11 14 20 30 20 17 0 30 9 30 20 0 11 9 20 20 20 11 0 20 -13 20 -28 0 -37 42 -51 119 -39 75 12 195 -45 306 -145 96 -87 138 -89 51 -3 -66 65 -223 175 -249 175 -8 0 -28 12 -45 28 -53 46 -130 63 -116 25 8 -20 3 -28 -15 -21 -41 16 -33 108 10 108 20 0 42 9 49 20 14 23 90 27 90 5 0 -8 55 -51 121 -95 67 -43 112 -82 100 -86 -11 -4 -21 -17 -21 -29 0 -12 6 -16 13 -9 7 7 29 4 50 -7 40 -22 57 27 17 51 -49 30 -21 91 35 77 50 -12 53 -11 26 21 -16 20 -44 31 -66 25 -21 -6 -42 2 -48 19 -15 38 -47 36 -47 -3 0 -17 -9 -26 -21 -19 -11 7 -19 24 -17 37 11 94 -72 163 -135 111 -31 -26 -33 -22 -20 39 7 38 13 80 13 95 0 17 21 28 50 28 32 0 50 -11 50 -31 0 -16 14 -35 30 -42 17 -6 30 -24 30 -41 0 -24 5 -24 31 3 41 40 57 40 41 -1 -10 -26 -3 -30 34 -21 32 8 62 -3 99 -38 29 -27 63 -49 74 -49 12 0 21 -35 21 -77 0 -67 10 -85 76 -130 84 -58 184 -71 184 -24 0 16 18 41 40 57 23 16 75 60 116 98 41 38 99 76 129 83 l54 14 -62 59 c-35 33 -71 60 -80 60 -9 0 -17 12 -17 27 0 15 -18 48 -40 73 -22 25 -40 39 -40 30 0 -10 -22 3 -48 28 -34 32 -61 42 -91 32 -24 -7 -56 -3 -72 11 -24 20 -29 14 -29 -38 0 -53 7 -62 44 -58 35 4 45 -5 45 -43 1 -60 39 -75 103 -41 26 14 53 20 60 14 7 -7 -34 -38 -90 -69 -102 -56 -127 -86 -73 -86 52 0 76 -73 48 -150 -19 -54 -30 -64 -51 -46 -21 17 -34 13 -53 -14 -39 -53 -60 13 -25 80 24 45 30 47 53 19 19 -23 29 -25 41 -6 15 24 -58 97 -98 97 -19 0 -94 100 -81 107 93 46 142 130 61 104 -70 -22 -70 64 0 173 68 105 85 112 152 65 46 -33 61 -14 20 27 -16 16 -17 24 -2 24 12 0 39 -26 59 -59 21 -32 96 -119 167 -193 128 -132 156 -193 115 -244 -16 -20 -11 -29 22 -37 37 -10 43 -26 44 -114 1 -186 122 -412 149 -279 7 31 21 88 32 126 35 121 1 320 -54 320 -31 0 -78 43 -138 128 -22 31 -50 67 -62 80 -102 108 -47 262 84 236 62 -11 53 -43 -28 -94 -69 -44 -78 -101 -20 -137 26 -16 44 -12 77 18 l43 38 -14 -74 c-14 -72 -12 -76 58 -105 39 -17 72 -39 72 -49 0 -10 18 -24 40 -31 47 -15 54 -50 9 -50 -24 0 -26 -8 -9 -41 12 -22 30 -35 39 -29 10 6 30 -2 45 -16 14 -15 38 -23 51 -19 14 5 33 -13 44 -38 17 -44 19 -44 20 -6 3 104 -64 229 -190 355 l-128 128 55 50 c84 79 170 128 178 103 17 -49 65 -98 65 -66 1 17 -10 42 -23 55 -34 34 -18 43 177 92 98 25 205 60 240 78 102 53 166 132 102 128 -14 -1 -58 5 -98 14 -47 10 -152 4 -290 -17 -289 -44 -278 -38 -222 -116 67 -91 54 -146 -25 -105 -73 38 -194 37 -260 0 -58 -33 -311 -41 -330 -10 -7 11 -1 20 12 20 14 0 40 14 59 31 26 24 45 26 89 9 41 -16 87 -15 168 3 97 20 105 26 62 38 -78 23 -380 22 -380 -1 0 -12 -21 -16 -49 -9 -68 17 -137 -8 -123 -44 9 -23 1 -26 -33 -16 -58 17 -155 108 -155 145 0 19 -14 25 -39 19 -58 -16 -65 35 -18 126 46 88 103 101 145 33 18 -29 13 -43 -28 -74 -43 -33 -46 -43 -24 -74 14 -20 30 -52 37 -71 12 -37 47 -49 47 -16 0 24 186 81 262 81 31 0 61 9 68 20 18 29 277 25 309 -5 18 -17 23 -17 14 -1 -23 40 23 49 88 16 50 -27 68 -28 92 -7 17 14 46 27 63 30 18 3 45 21 59 41 22 30 29 31 44 7 21 -34 219 -4 381 57 84 32 206 22 127 -10 -23 -10 -14 -88 10 -88 7 0 38 38 67 85 l55 85 -55 26 c-34 17 -68 60 -92 117 -39 95 -142 186 -272 241 -38 17 -72 32 -75 35 -15 14 23 71 46 71 15 0 34 12 43 26 55 92 241 130 396 81 l103 -32 54 53 c63 64 67 79 13 62 -29 -9 -40 -4 -40 19 0 25 -16 30 -70 24 -81 -9 -96 28 -25 63 37 18 11 23 -135 22 -277 -1 -294 4 -103 32 118 17 197 40 234 68 71 52 92 53 124 2 17 -28 46 -40 100 -40 41 0 75 -9 75 -20 0 -19 -100 -31 -195 -22 -25 2 -45 -6 -45 -17 0 -12 18 -21 39 -21 22 0 70 -17 107 -38 69 -38 254 6 254 61 0 51 -196 216 -284 240 -72 19 -89 31 -73 50 14 18 11 38 -11 71 -47 67 -40 90 43 143 223 142 314 360 171 414 l-52 20 56 59 c58 60 121 65 185 14 14 -11 32 -13 40 -5 19 19 -70 91 -112 91 -27 0 -80 65 -119 144 -3 7 12 32 35 55 67 67 73 144 15 202 -60 60 -134 195 -134 244 0 20 -13 41 -30 48 -16 6 -30 23 -30 37 0 14 -25 30 -55 36 -99 18 -314 118 -360 168 -71 76 -62 173 14 162 72 -11 65 4 -22 46 -129 62 -228 112 -297 152 -110 62 -157 68 -171 23 -18 -57 -117 -43 -125 18 -6 36 3 45 42 45 28 0 55 14 61 30 17 43 43 37 107 -22 79 -73 184 -114 219 -86 39 33 33 78 -11 78 -49 0 -34 73 24 125 22 19 33 35 25 35 -9 0 -5 13 8 29 14 16 18 40 10 53 -17 27 -14 25 141 -71 55 -34 118 -72 140 -85 322 -191 366 -229 222 -189 -79 22 -93 0 -50 -80 27 -51 9 -69 -87 -83 -61 -9 -75 -5 -75 21 0 26 -5 28 -25 8 -20 -20 -9 -38 54 -91 l79 -66 -104 -27 c-155 -40 -99 -70 125 -66 240 3 248 9 140 117 -122 122 -117 131 72 124 155 -6 161 -4 151 35 -6 23 -12 55 -12 73 0 18 -26 71 -58 119 -47 70 -55 95 -40 135 11 27 14 54 9 60 -6 6 -1 22 12 37 30 37 -10 82 -91 103 -58 15 -62 23 -68 118 -5 82 -19 117 -75 182 -85 99 -86 114 -7 142 55 19 61 28 50 77 -7 30 -16 68 -19 84 -4 16 -18 33 -32 37 -17 6 -21 -4 -12 -31 9 -31 1 -43 -36 -52 -38 -10 -46 -22 -38 -63 7 -39 1 -50 -27 -50 -61 0 -408 104 -408 123 0 9 -108 17 -239 17 -205 0 -238 -4 -228 -30 8 -22 -4 -30 -46 -31 -124 -3 93 -58 239 -60 185 -3 399 -35 487 -72 39 -16 87 -23 108 -17 49 16 111 -18 124 -67 20 -77 -14 -80 -160 -11 -162 76 -531 137 -754 125 -119 -7 -121 -6 -127 48 -4 30 -13 55 -20 55 -35 0 -118 -301 -95 -339 23 -37 48 -22 36 22 -8 30 -3 40 17 33 41 -14 38 -94 -4 -117 -92 -49 -143 230 -63 339 25 34 51 104 59 157 12 95 61 236 76 222 4 -5 0 -42 -9 -83 -9 -41 -9 -74 0 -74 10 0 13 -16 7 -35 -10 -30 -7 -29 20 4 18 21 32 59 32 84 0 54 22 71 61 46 24 -15 25 -25 4 -58 -30 -48 -33 -108 -5 -91 11 7 85 17 165 22 208 14 415 65 415 103 0 23 16 28 70 19 39 -6 70 -7 70 -2 0 24 -126 52 -268 59 -100 5 -165 17 -176 33 -13 20 -25 16 -52 -16 -75 -89 -124 -98 -176 -35 -58 71 -58 70 2 127 28 26 50 56 50 66 0 11 19 58 43 105 31 63 38 100 27 142 -21 73 -14 143 20 212 l27 55 -89 0 c-49 0 -88 -9 -88 -21 0 -12 -21 -50 -47 -85 -67 -91 -84 -123 -56 -106 45 28 22 -35 -57 -153 -86 -128 -109 -201 -35 -110 61 75 175 108 210 61 21 -28 18 -41 -12 -75 -21 -22 -47 -59 -60 -81 -20 -36 -22 -37 -22 -4 -1 20 8 54 20 75 12 24 13 39 1 39 -10 0 -22 -7 -25 -16 -4 -9 -59 -55 -122 -103 -74 -55 -119 -105 -126 -139 -6 -28 -15 -69 -19 -90 -4 -21 1 -56 12 -77 15 -26 14 -46 -3 -66 -19 -23 -18 -29 3 -29 15 0 6 -15 -19 -32 -57 -40 -48 -146 31 -398 27 -88 53 -171 57 -185 4 -14 22 -25 38 -25 36 0 42 -33 8 -44 -28 -10 11 -302 57 -426 17 -44 35 -93 40 -110 17 -53 -55 45 -116 160 -32 61 -67 124 -77 140 -10 17 -39 84 -64 150 -25 66 -79 159 -119 207 -87 104 -82 178 18 292 58 65 70 156 20 145 -27 -6 -68 60 -49 79 8 9 31 6 50 -7 31 -19 39 -11 59 66 28 103 31 208 7 208 -18 0 -63 -88 -63 -122 0 -22 -51 -80 -69 -79 -40 3 -49 -3 -57 -34 -5 -19 -5 -12 0 15 29 167 23 243 -28 318 -25 37 -83 -93 -75 -169 7 -71 3 -85 -21 -76 -44 17 -37 -38 10 -78 22 -19 40 -54 40 -78 0 -41 -2 -41 -37 -10 -37 34 -83 44 -83 18 1 -35 37 -67 77 -70 29 -2 49 -21 57 -54 7 -28 26 -72 43 -98 29 -45 28 -46 -16 -40 -56 8 -105 77 -66 91 45 17 28 69 -20 62 -37 -5 -44 -17 -39 -66 10 -91 69 -283 79 -255 4 14 18 25 29 25 11 0 15 -13 9 -28 -6 -16 2 -34 18 -40 16 -6 29 -29 29 -51 0 -23 13 -41 30 -41 28 0 28 -5 0 -47 -29 -44 -27 -48 20 -69 64 -30 64 -64 0 -64 -60 0 -61 -7 -10 -91 38 -61 71 -87 104 -81 8 1 28 -16 45 -38 18 -22 29 -28 26 -13 -3 16 5 32 16 36 29 11 89 -120 76 -167 -5 -22 4 -50 22 -65 21 -17 31 -19 31 -3 0 12 18 4 40 -18 22 -22 40 -48 40 -58 0 -28 -87 -43 -103 -17 -18 28 -27 20 -45 -38 -24 -77 125 -76 155 1 6 18 25 32 42 32 43 0 72 -63 48 -106 -22 -40 -70 -45 -83 -9 -5 14 -16 18 -25 10 -8 -8 -5 -39 9 -68 19 -41 19 -57 0 -68 -31 -20 -8 -79 31 -79 17 0 31 -11 31 -23 0 -13 5 -18 12 -12 6 6 -2 33 -19 58 -35 55 -17 89 72 135 30 16 55 43 55 60 -1 28 -3 28 -19 3 -27 -42 -39 -21 -27 45 20 100 175 104 253 5 11 -14 19 -13 26 4 15 37 43 30 57 -15 13 -40 90 -57 90 -20 0 11 -13 20 -30 20 -41 0 -38 40 5 72 56 43 132 36 120 -11 -7 -27 -2 -35 17 -27 16 5 28 18 28 28 0 10 9 18 20 18 11 0 20 -10 20 -21 0 -28 51 -79 79 -79 11 0 21 -8 21 -18 0 -34 131 -175 155 -167 14 5 25 -9 25 -30 0 -70 136 -219 253 -275 60 -30 106 -58 101 -62 -4 -5 -34 5 -66 22 -85 44 -115 40 -83 -10 17 -27 37 -36 65 -27 33 10 31 4 -13 -38 -55 -51 -168 -57 -151 -8 5 13 23 20 41 17 34 -6 43 29 17 70 -8 13 -56 41 -107 63 -111 47 -127 69 -127 170 0 56 -12 86 -40 105 -38 25 -40 22 -40 -61 0 -107 -85 -155 -115 -64 -19 61 10 256 37 245 43 -17 33 9 -25 63 -47 43 -55 45 -71 17 -10 -18 -25 -29 -33 -24 -7 5 -11 -29 -7 -75 5 -70 2 -78 -20 -53 -24 28 -122 80 -150 80 -6 0 -6 -57 1 -127 13 -124 12 -127 -41 -151 -58 -27 -162 57 -132 105 7 11 23 4 36 -14 36 -49 43 -41 34 38 l-9 71 -92 -9 c-51 -5 -96 -10 -100 -11 -5 -1 3 -16 17 -32 31 -37 12 -60 -46 -60 -53 0 -72 -69 -26 -94 35 -20 45 -136 12 -136 -11 0 -20 29 -20 65 -1 49 -5 58 -20 35 -11 -16 -20 -69 -20 -117 0 -77 -4 -85 -31 -62 -23 19 -28 47 -19 107 9 67 7 75 -11 45 -45 -72 -120 103 -110 253 5 68 4 105 -1 81 -12 -50 -65 -78 -95 -48 -13 13 -8 33 16 60 55 61 -34 98 -152 62 -124 -37 -357 -49 -426 -22 -110 43 -19 64 219 50 136 -8 212 -6 200 6 -39 36 -193 67 -395 80 -218 13 -208 39 17 43 89 1 130 11 153 37 33 38 45 205 14 205 -11 0 -19 -21 -19 -48 0 -45 -9 -48 -205 -71 -259 -29 -370 -70 -429 -161 -25 -39 -55 -82 -67 -96 -29 -34 -55 -127 -44 -159 12 -37 45 -9 45 38 0 53 74 157 111 157 17 0 29 -20 29 -49 0 -133 72 -199 300 -273 147 -48 244 -126 236 -187 -4 -25 6 -42 24 -44 17 -1 38 -3 47 -5 10 -1 7 -15 -5 -30 -39 -46 58 -225 209 -387 155 -167 172 -175 144 -65 -11 47 -32 80 -49 80 -15 0 -23 9 -16 20 7 11 -2 20 -20 20 -61 0 -279 258 -246 291 4 3 47 -29 96 -74 50 -44 124 -103 165 -131 80 -55 102 -105 104 -236 0 -44 15 -94 31 -112 17 -17 41 -49 54 -70 19 -30 28 -32 42 -12 61 90 -285 736 -384 718 -11 -2 -24 15 -28 39 -4 26 -26 48 -55 56 -27 6 -49 21 -49 31 0 45 59 16 136 -65 18 -19 49 -35 68 -35 20 0 36 -12 36 -28 0 -15 14 -38 30 -52 37 -31 42 13 9 85 -28 60 -181 157 -239 150 -25 -3 -50 6 -54 20 -6 17 2 21 26 12 28 -11 32 -7 19 25 -8 21 -20 54 -26 73 -11 41 -65 46 -105 10 -24 -21 -24 -20 -3 8 20 27 20 35 -1 44 -14 6 28 9 94 7 l120 -4 3 -80 c2 -44 4 -88 5 -97 1 -10 14 -8 28 4 14 12 47 16 73 9 33 -9 43 -5 33 11 -8 13 -5 23 5 23 11 0 26 -16 32 -35 7 -19 48 -57 93 -85 87 -54 198 -248 198 -348 0 -40 10 -52 44 -52 42 0 42 -2 -11 -57 -70 -73 -59 -205 19 -240 55 -26 61 5 29 146 -16 69 -13 83 25 114 24 20 55 46 69 58 14 12 71 45 125 73 101 52 142 88 230 196 27 33 49 49 49 35 1 -14 -9 -25 -20 -25 -12 0 -15 -10 -8 -21 8 -14 23 -8 39 15 15 19 23 40 20 46 -4 7 10 11 31 11 45 0 49 -12 14 -51 -17 -18 -7 -16 27 5 39 24 58 27 75 10 12 -12 29 -16 37 -8 8 9 2 24 -15 34 -21 14 -15 18 26 14 37 -2 52 -13 46 -30 -6 -15 9 -34 34 -44 56 -21 152 -121 117 -121 -14 0 -49 18 -77 40 -28 22 -60 40 -72 40 -12 0 -2 -14 23 -31 25 -18 39 -40 33 -50 -6 -11 0 -19 13 -19 14 0 18 -7 10 -15 -9 -8 -26 -1 -39 16 -12 17 -39 37 -58 44 -21 8 -30 26 -23 44 9 24 -2 31 -45 31 -90 0 -142 -50 -219 -212 -38 -82 -78 -144 -88 -138 -9 6 -22 3 -28 -6 -11 -19 -71 -19 -102 -1 -59 34 -130 37 -130 5 0 -20 -11 -28 -30 -21 -48 19 -37 -63 18 -129 45 -52 94 -213 91 -294 -2 -28 -5 -27 -19 6 -18 41 -32 -1 -21 -59 2 -11 -13 -4 -34 15 -21 19 -44 28 -52 21 -7 -8 -13 -4 -13 8 0 37 57 45 66 9 6 -22 10 -16 12 16 1 36 -13 57 -52 75 -65 30 -56 43 -92 -135 -17 -82 -37 -172 -46 -200 l-15 -49 53 35 c46 30 54 30 54 5 0 -17 -23 -36 -52 -43 -48 -12 -94 -80 -75 -113 5 -8 36 -1 69 16 32 17 68 25 79 19 11 -7 19 16 19 54 1 119 28 131 103 46 84 -96 117 -173 117 -272 0 -74 3 -78 65 -81 60 -3 61 -4 10 -11 -99 -15 -76 -102 28 -110 83 -6 137 -56 61 -56 -21 0 -49 -12 -62 -27 -58 -71 -225 54 -213 160 8 79 -7 113 -39 87 -19 -16 -23 -4 -19 50 3 38 -3 70 -13 70 -10 0 -18 -11 -18 -25 0 -14 -26 -55 -57 -92 -37 -43 -54 -82 -48 -111 5 -25 -5 -56 -23 -71 -18 -14 -32 -38 -32 -53 0 -16 -13 -28 -30 -28 -16 0 -30 -11 -31 -25 0 -34 -59 45 -59 80 0 15 11 25 25 24 53 -7 75 2 75 32 0 26 -17 30 -90 22 -98 -11 -107 0 -61 84 52 95 135 369 124 411 -5 23 -23 76 -38 119 l-29 76 -25 -60 c-27 -67 -24 -240 5 -278 15 -19 11 -23 -13 -13 -25 9 -34 0 -35 -35 -10 -201 -25 -226 -91 -150 -55 65 -54 65 -82 -19 -20 -59 -19 -61 30 -52 37 7 48 2 41 -18 -6 -15 -25 -25 -43 -22 -24 4 -33 -9 -32 -50 0 -49 3 -52 21 -20 20 35 23 35 47 2 15 -21 38 -29 58 -22 18 7 33 5 33 -5 0 -10 -9 -21 -20 -24 -12 -4 -7 -26 12 -53 18 -26 45 -42 60 -36 15 6 29 4 29 -4 1 -8 6 -34 10 -59 9 -47 -21 -63 -36 -20 -7 18 -20 16 -49 -10 -38 -34 -41 -34 -75 4 -20 22 -44 35 -54 29 -27 -17 -20 -48 12 -48 21 0 29 -20 27 -67 -1 -37 4 -77 12 -90 8 -13 6 -23 -5 -23 -11 0 -14 -20 -8 -45 17 -66 -45 -11 -87 76 -17 37 -44 63 -61 61 -38 -6 -130 -182 -115 -221 17 -43 -58 -75 -102 -44 -44 33 -27 96 34 123 90 40 74 257 -16 222 -15 -6 -28 9 -32 34 -14 102 -254 60 -316 -55 -14 -27 -51 -58 -83 -69 -31 -11 -57 -27 -57 -36 1 -30 38 -75 51 -62 7 8 35 5 61 -5 30 -11 48 -11 48 1 0 11 -9 20 -20 20 -42 0 -18 36 30 45 28 5 50 1 50 -9 0 -10 14 -5 32 13 88 88 179 76 129 -18 -15 -28 -40 -52 -54 -54 -15 -2 -38 -4 -52 -5 -14 -1 -32 -19 -40 -39 -12 -29 -22 -32 -43 -15 -21 18 -30 16 -38 -5 -14 -35 -113 -20 -128 20 -6 15 -27 27 -47 27 -20 0 -44 11 -52 25 -10 17 -19 8 -27 -25 -16 -68 -127 -73 -136 -6 -7 45 64 102 85 68 14 -23 229 81 230 112 1 13 -24 23 -54 22 -108 -2 -112 3 -55 56 36 34 70 47 98 41 23 -6 59 2 80 17 26 20 65 25 125 17 176 -25 52 44 -313 172 -211 74 -286 121 -194 121 30 0 54 -9 54 -20 0 -11 16 -20 35 -20 19 0 106 -28 193 -62 115 -44 162 -55 172 -37 11 17 19 17 29 1 29 -47 54 -20 45 48 -11 79 21 230 48 230 10 0 18 -36 18 -80 0 -44 9 -80 19 -80 10 0 22 -42 25 -93 4 -68 17 -99 46 -115 22 -12 45 -28 50 -34 6 -7 39 -19 74 -27 44 -9 60 -23 53 -42 -7 -18 1 -29 21 -29 18 0 32 -9 32 -20 0 -48 36 -14 58 55 14 41 29 89 35 105 8 25 7 25 -10 2 -30 -43 -63 100 -63 272 0 115 7 149 36 170 20 14 59 67 88 116 29 50 71 112 94 138 65 75 36 72 -73 -6 -186 -134 -517 -243 -574 -190 -12 11 -11 18 2 18 12 0 66 20 119 44 54 24 103 45 108 45 22 3 251 98 266 111 27 23 -208 -18 -316 -55 -62 -22 -138 -71 -200 -132 -57 -55 -160 -124 -240 -161 -77 -36 -152 -80 -167 -97 -20 -25 -38 -28 -76 -14 -28 11 -59 14 -69 8 -39 -24 -15 25 47 96 72 83 105 96 89 35 -10 -38 -8 -38 47 5 74 59 80 125 9 107 -62 -16 -64 10 -5 78 30 34 65 51 105 51 33 0 99 -1 147 -2 47 0 100 10 117 24 17 14 50 26 73 26 24 1 43 14 43 31 0 17 20 33 45 36 29 4 45 21 45 45 0 25 14 39 38 39 21 0 42 11 47 25 6 18 20 16 57 -8 82 -53 378 -87 392 -45 11 32 -64 108 -106 108 -21 0 -110 22 -198 50 -206 64 -204 64 -220 -30 -10 -60 -23 -80 -51 -80 -35 0 -197 -80 -254 -126 -95 -74 -25 32 102 156 84 82 153 154 153 160 0 21 -128 130 -153 130 -31 0 -34 18 -9 58 24 38 125 13 109 -27 -6 -16 12 -52 40 -80 53 -53 93 -66 93 -31 0 40 132 19 207 -32 146 -99 93 -32 -127 162 -121 107 -231 213 -243 237 -16 31 -3 25 46 -22 93 -88 97 -83 53 50 -48 143 -116 206 -144 134 -6 -17 -4 -26 6 -20 9 5 17 -14 17 -43 0 -47 -3 -50 -25 -20 -42 59 -101 -28 -97 -146 2 -82 -4 -98 -43 -116 -64 -29 -141 -138 -172 -240 -20 -68 -41 -95 -99 -125 -91 -46 -173 -148 -259 -319 -35 -71 -82 -149 -103 -172 -34 -37 -35 -44 -8 -55 52 -20 42 -140 -11 -127 -29 8 -64 -9 -115 -56 -97 -89 -72 -106 56 -36 l103 56 40 -50 c22 -27 73 -90 114 -138 93 -111 97 -122 46 -122 -23 0 -42 -12 -42 -28 0 -15 -33 -78 -73 -140 -70 -108 -127 -145 -127 -82 0 17 -9 30 -20 30 -26 0 -26 -46 1 -73 29 -29 -25 -70 -117 -88 l-74 -14 65 -15 c81 -19 82 -33 5 -67 -73 -32 -76 -55 -11 -71 31 -8 46 -23 39 -39 -12 -33 67 -67 197 -83 53 -6 120 -20 150 -31 l55 -20 -50 40 c-52 42 -241 121 -290 121 -47 0 -54 37 -11 64 23 14 41 33 41 42 0 9 -10 10 -23 2 -14 -9 -18 -5 -9 9 17 28 200 31 251 3 29 -15 39 -11 47 23 14 50 63 39 67 -15 1 -21 9 -52 16 -70 24 -58 -37 -83 -93 -39 -54 43 -76 36 -76 -23 0 -47 89 -84 139 -57 25 14 47 11 73 -8 36 -27 36 -29 2 -42 -34 -13 -34 -15 0 -41 34 -26 34 -27 0 -27 -20 -1 -32 -8 -26 -17 28 -46 -25 -68 -119 -48 -52 11 -105 17 -117 12 -12 -4 -49 15 -82 44 -87 75 -239 148 -310 148 -92 0 -198 58 -152 84 22 12 55 12 95 -2 52 -18 71 -15 122 21 73 52 36 86 -78 73 -59 -7 -68 -3 -60 28 12 47 -98 50 -163 5 -44 -31 -51 -26 -46 32 7 67 -144 100 -209 48 -37 -30 -33 -31 50 -22 l89 10 -64 -40 c-61 -39 -67 -39 -115 -8 -102 67 -125 -45 -29 -146 33 -34 60 -76 60 -92 0 -16 9 -34 20 -41 12 -8 16 25 10 90 -6 65 -2 98 10 90 11 -7 21 -32 22 -56 2 -34 5 -36 12 -9 11 42 33 45 63 8 26 -31 11 -53 -38 -53 -29 0 -33 -15 -25 -95 14 -156 25 -190 57 -177 16 6 29 1 29 -11 0 -12 27 8 60 43 57 62 76 191 33 234 -25 25 -12 90 27 140 35 45 41 47 53 16 9 -24 -1 -46 -31 -69 -50 -37 -34 -63 53 -90 51 -16 134 -159 117 -203 -7 -19 -43 -28 -111 -28 -90 0 -153 -39 -66 -41 33 0 33 -2 1 -26 -18 -14 -44 -70 -58 -124 -23 -98 -58 -163 -58 -111 0 22 -6 22 -32 0 -27 -22 -36 -21 -57 8 -14 19 -37 34 -52 34 -17 0 -13 -10 10 -27 26 -19 30 -31 14 -41 -13 -8 -18 -23 -12 -33 6 -11 -2 -19 -19 -19 -16 0 -35 9 -42 20 -7 12 -23 14 -36 6 -13 -8 -37 -15 -54 -15 -21 -1 -28 -18 -24 -55 4 -38 -8 -63 -35 -80 -49 -31 -54 -60 -9 -52 33 6 54 -20 77 -92 9 -29 18 -33 35 -16 16 16 16 30 -3 53 -30 36 -12 131 24 131 64 -1 85 -36 61 -100 -21 -55 -19 -61 11 -51 21 7 61 -13 104 -51 65 -58 57 -62 -40 -22 -31 12 35 -90 113 -176 70 -76 32 -123 -41 -50 -39 39 -206 111 -221 95 -7 -7 -2 17 10 51 23 67 48 82 64 39 5 -14 16 -18 24 -10 26 24 -35 78 -76 68 -53 -14 -256 28 -242 50 25 41 -324 19 -362 -23 -37 -40 -90 -54 -90 -23 0 9 23 27 52 40 33 15 48 35 41 53 -9 22 2 26 48 17 58 -12 82 16 38 44 -42 25 21 71 65 47 30 -16 34 -28 18 -44 -40 -40 -23 -54 66 -54 60 0 91 10 99 30 7 16 25 30 40 30 20 0 26 14 18 43 -7 28 1 52 24 69 49 35 21 69 -47 55 -75 -15 -96 38 -43 106 l39 49 32 -49 c38 -59 187 -105 203 -63 5 14 -17 79 -50 143 -73 146 -80 187 -45 253 22 42 23 68 3 138 -13 47 -25 97 -26 111 -1 18 -12 16 -38 -8 -20 -18 -31 -40 -25 -50 12 -19 -86 -65 -132 -61 -93 9 -202 -188 -180 -326 17 -106 14 -121 -17 -102 -26 16 -55 156 -93 446 -30 231 -63 346 -97 346 -10 0 -12 -13 -6 -29 6 -17 3 -35 -8 -42 -10 -6 -19 2 -19 17 0 16 -15 41 -33 57 -35 28 -32 -40 6 -181 9 -32 6 -44 -8 -35 -12 8 -28 4 -35 -7 -7 -11 4 -27 24 -35 20 -8 38 -27 41 -41 4 -15 -3 -21 -15 -14 -43 27 -17 -21 35 -63 l55 -45 -78 21 c-43 11 -106 15 -140 9 -80 -15 -135 15 -80 43 21 11 49 16 63 11 16 -6 25 10 25 42 0 58 -29 69 -48 19 -12 -30 -15 -30 -39 2 -24 34 -30 33 -109 -7 -210 -107 -375 -111 -454 -9 -28 36 -126 69 -140 48 -6 -10 -2 -24 10 -31 44 -27 16 -49 -65 -49 -151 0 -271 -11 -287 -26 -34 -35 -68 -13 -68 45 0 47 -10 62 -53 73 -50 12 -51 14 -16 40 20 15 27 27 16 27 -25 0 -167 135 -167 159 0 18 60 49 85 44 35 -7 8 32 -89 131 -58 58 -93 106 -79 106 33 0 302 -273 322 -328 10 -26 5 -57 -12 -84 -37 -56 -3 -85 109 -96 79 -8 81 -7 63 41 -32 84 -25 111 26 96 25 -8 48 -22 52 -32 12 -31 39 -18 36 18 -2 28 12 35 72 33 41 -2 75 5 75 14 0 30 -168 62 -276 53 -87 -7 -105 -3 -102 23 1 18 2 43 0 56 -2 27 -89 126 -111 126 -29 0 -71 57 -51 70 11 7 15 34 8 61 -18 72 0 61 79 -49 55 -77 80 -96 112 -88 22 6 41 2 41 -8 0 -11 34 -21 75 -22 41 -2 77 -11 81 -21 3 -11 40 -10 90 1 46 11 96 22 112 24 15 3 38 20 52 38 13 18 30 27 38 19 8 -7 21 -3 29 10 11 18 34 19 84 5 65 -18 67 -17 29 13 -39 30 -39 31 8 17 39 -12 46 -8 36 17 -14 37 17 64 36 32 8 -11 3 -33 -9 -48 -17 -21 -17 -31 2 -43 14 -8 28 -5 32 8 5 13 28 24 52 24 31 1 36 5 16 17 -14 10 -23 34 -20 55 6 30 -3 37 -43 32 -77 -10 -260 17 -260 37 0 22 104 24 278 6 l123 -13 -7 -81 c-7 -73 -18 -89 -91 -127 -4 -1 28 -37 70 -79 73 -72 75 -77 32 -83 -25 -4 -45 -20 -45 -37 0 -16 -9 -24 -21 -16 -11 7 -15 29 -9 49 19 60 -118 105 -155 51 -10 -14 -21 -11 -35 9 -11 17 -20 21 -20 9 0 -35 -142 -78 -160 -49 -12 19 -25 19 -59 0 -44 -23 -42 -44 5 -52 13 -2 110 -18 214 -36 105 -18 220 -37 256 -43 51 -9 72 -25 87 -69 46 -132 134 -96 186 76 46 152 87 207 146 191 25 -6 45 -20 45 -30 0 -20 26 -55 86 -115 27 -28 33 -58 26 -131 -6 -70 -3 -90 14 -73 37 37 57 25 33 -20 -12 -22 -18 -53 -12 -68 6 -14 5 -31 -2 -38 -20 -20 -26 -135 -6 -123 10 6 29 45 42 86 13 41 46 95 74 120 42 37 46 49 25 75 -34 42 -13 59 38 31 44 -23 57 -61 22 -61 -11 0 -20 -8 -20 -17 0 -46 81 -1 186 102 63 63 138 120 165 127 89 22 51 48 -72 48 -127 0 -179 -18 -255 -87 l-46 -42 -48 60 c-27 32 -49 68 -49 79 -1 11 -21 29 -46 40 -24 11 -63 48 -85 83 -67 106 -210 75 -210 -46 0 -48 -29 -29 -59 38 -34 80 -86 154 -107 154 -8 1 -6 -17 6 -39 12 -22 14 -40 4 -40 -9 0 -15 -72 -11 -160 3 -89 0 -176 -7 -194 -24 -61 -43 32 -45 210 -1 152 -5 167 -46 183 -39 15 -40 19 -11 31 27 11 30 24 15 63 -11 27 -19 53 -19 56 0 44 255 -44 322 -111 41 -41 62 -36 148 34 29 24 33 35 14 42 -81 31 -129 98 -102 142 38 60 -4 105 -52 57 -40 -40 -48 -41 -88 -6 -30 26 -230 93 -372 125 -33 7 -71 22 -85 33 -16 13 -34 13 -50 0 -33 -26 -235 -92 -247 -80 -25 26 -59 215 -44 244 15 25 0 39 -72 70 -87 37 -152 118 -152 189 0 17 -18 40 -39 52 -35 18 -39 35 -29 135 6 63 11 133 10 155 -1 22 8 93 20 158 13 72 14 123 2 130 -10 7 -34 42 -52 78 l-34 65 -52 -40 c-70 -56 -114 -54 -99 4 7 25 13 52 13 60 0 8 27 15 60 15 90 0 75 52 -30 98 -63 28 -99 60 -123 110 -18 39 -41 66 -50 60 -9 -5 -12 3 -6 18 7 18 -16 45 -62 72 -64 38 -72 39 -61 9 13 -32 10 -31 -27 2 -22 20 -46 55 -53 79 -7 23 -31 62 -54 87 -22 25 -35 51 -28 58 8 7 2 27 -11 43 -22 27 -19 27 20 7 25 -14 45 -31 45 -40 0 -36 85 -103 131 -103 27 0 85 -22 129 -50 101 -64 110 -63 68 8 -19 33 -50 58 -68 57 -129 -10 -389 389 -307 471 15 15 119 -36 139 -69 14 -23 7 -22 -85 16 -87 36 187 -195 292 -247 l131 -63 -94 -2 c-109 -1 -179 22 -235 78 -23 23 -41 33 -41 23 0 -66 153 -155 280 -162 39 -3 54 -9 35 -14 -85 -22 -17 -90 103 -101 l102 -10 0 60 c0 33 -13 71 -30 85 -34 28 -40 80 -10 80 10 0 14 25 8 55 l-11 55 142 5 c199 6 354 58 312 104 -16 18 -44 72 -60 119 -17 48 -58 123 -91 168 -59 80 -59 82 -22 123 60 66 105 170 98 227 l-7 54 -32 -60 c-50 -91 -137 -170 -185 -168 -31 2 -33 5 -9 11 28 8 33 32 28 148 -6 151 1 158 96 109 74 -39 78 -38 49 9 -37 59 -11 67 103 29 101 -33 107 -32 247 12 138 44 180 48 464 35 99 -5 100 -4 140 79 25 53 54 85 76 85 20 1 55 11 77 23 58 31 119 10 228 -81 56 -46 136 -89 192 -104 54 -13 97 -36 97 -50 0 -107 353 -20 398 98 26 69 16 75 -136 75 -96 1 -124 6 -102 21 17 11 89 19 160 17 215 -6 323 1 311 20 -6 10 9 14 34 8 37 -8 40 -5 15 14 -24 18 -21 20 16 10 51 -15 124 35 124 83 0 40 -36 33 -60 -13 -12 -22 -30 -40 -41 -40 -39 0 -17 65 41 123 74 75 76 94 5 82 -54 -10 -120 -68 -190 -166 l-35 -49 13 60 c7 33 31 80 53 105 42 46 36 53 -36 45 -38 -4 -110 -64 -110 -91 0 -22 -62 -74 -74 -62 -6 6 3 33 20 60 43 66 -55 71 -108 6 -19 -24 -41 -36 -49 -28 -8 8 -3 28 11 45 33 40 1 38 -58 -3 -32 -22 -51 -25 -60 -10 -15 24 -102 8 -102 -20 0 -10 23 -12 50 -5 28 7 50 4 50 -7 0 -26 -129 -125 -162 -125 -39 0 47 -59 87 -59 19 -1 35 -11 35 -22 0 -13 -17 -16 -40 -9 -23 7 -40 4 -40 -9 0 -35 -37 -23 -49 17 -7 20 -64 60 -129 90 -65 29 -122 64 -128 78 -16 44 -230 28 -330 -23 -71 -37 -83 -51 -64 -73 20 -24 8 -27 -78 -16 -83 9 -102 6 -102 -19 0 -41 -59 -89 -77 -62 -13 20 -187 60 -343 79 -68 8 -75 5 -66 -30 16 -63 -86 -121 -123 -70 -39 52 -51 106 -28 120 11 7 25 -7 31 -30 11 -44 55 -56 77 -21 15 26 -64 99 -109 100 -31 0 -102 44 -102 62 0 5 44 9 98 9 54 0 111 9 125 20 15 11 63 23 107 25 60 4 72 0 50 -16 -32 -22 -1 -29 93 -22 24 2 48 -5 54 -15 7 -10 -16 -19 -49 -20 -33 -1 -72 -11 -86 -22 -13 -12 -60 -15 -103 -9 -58 9 -73 6 -58 -10 23 -25 266 -63 279 -44 4 8 57 8 117 1 80 -8 106 -5 99 12 -5 13 2 31 16 39 18 11 21 5 11 -19 -9 -24 -5 -33 12 -27 14 4 33 43 42 87 9 43 43 151 75 240 65 183 75 273 28 255 -44 -17 -35 15 23 83 l51 60 -12 -67 c-10 -55 -5 -69 27 -77 21 -5 34 -21 28 -35 -10 -27 42 -91 74 -91 10 0 13 12 8 27 -6 15 3 26 20 26 17 0 31 -7 31 -16 0 -9 13 -11 28 -5 38 15 59 105 32 138 -12 14 -20 33 -18 43 15 83 -26 87 -56 6 -23 -61 -24 -61 -85 -30 -33 18 -61 40 -61 49 0 29 57 66 79 52 32 -19 101 9 101 41 0 41 33 36 65 -11 27 -38 30 -37 93 28 83 86 39 173 -47 93 -49 -46 -71 -37 -71 32 0 51 -37 62 -76 23 -18 -18 -16 -32 9 -59 56 -63 21 -95 -97 -89 -93 5 -107 11 -113 50 -5 37 2 44 38 39 25 -4 50 6 58 23 8 17 25 50 38 75 13 24 23 62 23 84 0 40 64 90 87 67 7 -6 26 0 43 14 17 14 37 19 45 11 8 -9 -5 -29 -30 -46 -71 -47 -54 -82 66 -135 61 -27 148 -81 194 -119 53 -46 103 -71 140 -71 33 0 52 -8 45 -20 -7 -11 -38 -20 -69 -20 -32 0 -62 -13 -68 -30 -15 -40 -53 -39 -53 1 0 33 -64 25 -113 -14 -13 -10 -46 -14 -74 -9 -38 7 -48 2 -40 -19 6 -16 17 -25 24 -21 7 4 24 -4 38 -19 15 -17 17 -31 5 -39 -11 -7 -20 -1 -20 12 0 14 -5 19 -12 13 -7 -7 3 -57 21 -111 l32 -98 95 -3 c97 -3 204 47 149 70 -66 27 -22 67 73 67 111 0 167 16 151 42 -6 10 2 18 19 18 16 0 35 -9 42 -20 8 -13 25 -13 50 0 21 11 47 20 59 20 37 0 23 -33 -24 -54 l-44 -20 46 -24 c66 -36 110 -13 95 48 -10 40 -5 50 25 50 34 0 101 54 81 65 -92 53 -96 54 -114 22 -15 -26 -43 -30 -141 -23 -68 5 -123 3 -124 -3 -1 -21 -102 -85 -114 -72 -7 7 61 84 151 171 90 87 164 150 164 140 0 -10 -9 -23 -20 -30 -35 -22 -22 -48 40 -80 l60 -31 0 60 c0 34 -10 61 -21 61 -57 0 -4 67 56 72 35 3 93 25 127 50 37 26 106 49 166 55 l102 11 -80 14 c-44 8 -100 21 -125 28 -33 11 -45 7 -45 -15 0 -43 -49 -78 -87 -63 -101 38 -24 128 97 114 118 -14 219 -8 227 14 3 11 24 40 46 65 l39 45 -13 -65 c-7 -36 -9 -65 -4 -65 18 0 209 66 268 92 35 15 71 28 80 28 26 0 412 122 454 144 28 14 35 12 29 -7 -5 -15 -39 -37 -76 -49 -45 -15 -58 -26 -39 -35 16 -7 11 -8 -12 -3 -63 15 -125 -37 -92 -77 23 -27 18 -30 -48 -19 -68 11 -73 9 -60 -31 8 -26 5 -43 -8 -43 -48 0 -17 -40 34 -43 49 -2 50 -3 9 -11 -25 -5 -59 2 -75 14 -22 19 -35 17 -59 -7 -23 -23 -140 -33 -140 -12 0 27 -274 7 -301 -22 -18 -20 -59 -42 -90 -49 -32 -7 -62 -29 -68 -48 -8 -25 -29 -33 -78 -29 -70 5 -83 -58 -28 -128 24 -30 3 -92 -25 -75 -25 15 -25 6 0 -59 10 -28 32 -51 47 -51 15 0 54 -30 85 -67 32 -37 77 -73 100 -81 24 -7 58 -30 77 -51 46 -51 -24 -76 -112 -40 -48 20 -64 20 -83 -1 -19 -21 -17 -23 12 -13 21 7 31 5 24 -7 -16 -26 -84 -26 -99 -1 -7 11 -26 14 -44 7 -17 -6 -40 1 -50 16 -14 21 -17 19 -13 -12 12 -84 -81 -61 -184 47 -53 55 -101 95 -107 89 -20 -20 15 -77 86 -140 58 -52 63 -62 27 -53 -25 6 -55 24 -68 39 -13 15 -35 28 -50 28 -24 0 -38 38 -30 85 4 29 -39 14 -73 -25 -18 -22 -49 -40 -67 -40 -19 0 -39 -14 -46 -32 -10 -25 -36 -30 -121 -25 -109 7 -148 -35 -81 -89 11 -9 -17 -11 -63 -4 -75 12 -131 -12 -101 -43 21 -21 301 -8 315 14 10 16 18 17 27 2 13 -20 59 -18 192 10 l50 10 -48 39 c-26 22 -42 44 -36 51 7 6 27 -3 44 -21 18 -17 42 -32 53 -32 10 0 14 -9 7 -20 -17 -27 124 -9 530 68 263 51 347 60 332 35 -8 -12 -52 -32 -98 -45 -46 -13 -70 -27 -54 -32 17 -5 42 -13 56 -17 19 -6 16 -27 -15 -86 -40 -79 -90 -117 -111 -83 -6 10 -24 13 -41 7 -46 -18 -13 84 39 117 16 10 15 21 0 36 -17 17 -40 1 -87 -59 -35 -44 -54 -81 -41 -81 14 0 51 -22 84 -50 69 -59 243 -76 196 -20 -20 25 -19 30 8 30 17 0 32 10 32 22 0 12 13 17 29 11 15 -6 32 -1 36 11 4 14 27 9 61 -13 87 -57 260 -20 183 39 -38 28 -38 29 5 29 24 1 49 -8 56 -19 26 -43 49 -17 47 55 -3 123 -305 377 -625 527 -150 70 -151 72 -77 142 133 124 292 86 342 -82 13 -43 37 -88 53 -102 17 -14 30 -36 30 -49 0 -72 128 -149 205 -122 63 22 75 22 75 -1 0 -32 52 -38 70 -8 7 11 -1 49 -19 83 -39 78 -39 79 4 63 91 -35 101 -135 20 -221 -32 -34 -48 -39 -68 -22 -21 17 -27 14 -27 -9 0 -17 29 -52 65 -77 36 -25 72 -57 81 -71 26 -42 58 -32 35 11 -11 21 -14 43 -7 50 7 7 3 13 -8 13 -26 0 -1 146 43 251 17 41 31 105 31 142 0 131 232 346 297 276 7 -8 4 -18 -7 -22 -89 -34 -127 -71 -179 -174 -44 -88 -53 -125 -38 -150 12 -18 18 -76 15 -128 -3 -52 1 -95 9 -95 25 0 70 183 49 197 -30 20 -47 83 -23 83 12 0 16 14 9 32 -16 41 7 81 28 49 9 -16 29 -1 58 43 l43 66 -13 -75 c-8 -49 -5 -75 10 -75 12 0 22 -13 22 -30 0 -37 -23 -39 -58 -5 -21 20 -23 12 -10 -45 33 -144 11 -318 -34 -263 -92 114 -79 -70 14 -192 62 -81 77 -72 147 82 30 68 79 158 108 201 29 43 72 137 94 210 48 157 88 222 134 223 28 0 24 9 -17 45 -29 24 -63 65 -76 90 -29 55 -62 40 -62 -27 0 -62 -14 -62 -64 1 -21 28 -47 46 -56 40 -10 -6 -25 1 -34 15 -35 54 -167 35 -155 -23 10 -51 9 -51 -14 -7 -29 56 9 205 53 205 16 0 38 18 50 39 12 24 50 44 95 51 41 7 95 21 120 31 l46 18 -42 42 c-98 98 -104 266 -15 452 15 32 12 55 -14 95 -46 70 -57 66 -42 -16 10 -51 5 -70 -19 -80 -51 -19 -165 -14 -179 8 -30 49 -70 18 -71 -55 0 -82 -44 -127 -144 -152 -30 -8 -55 -23 -55 -34 0 -12 -23 -44 -51 -72 -60 -60 -53 -81 14 -45 26 14 84 23 130 20 87 -5 118 13 252 148 l60 60 -54 -100 c-31 -59 -45 -102 -32 -106 48 -16 -8 -44 -89 -44 -183 0 -482 -101 -436 -147 7 -7 -7 -13 -32 -13 -36 0 -42 8 -32 40 7 23 4 40 -9 40 -11 0 -21 -11 -21 -26 0 -14 -18 -41 -40 -59 -22 -19 -40 -29 -40 -22 0 6 -15 0 -34 -16 -29 -24 -32 -23 -20 10 8 20 14 53 14 73 0 24 20 41 59 50 40 9 55 22 48 41 -7 18 1 29 22 29 18 0 28 9 21 20 -7 12 -23 15 -34 7 -12 -7 -17 -4 -10 6 38 63 -68 215 -141 203 -28 -5 -33 6 -29 57 8 80 -30 106 -56 38 -28 -75 -89 -69 -73 8 18 90 198 370 244 378 37 7 37 6 -4 -30 -42 -36 -145 -281 -110 -259 10 6 53 56 94 111 42 55 81 96 85 91 14 -14 -41 -136 -80 -179 -49 -53 -69 -170 -34 -193 41 -26 98 -22 99 7 0 14 14 1 30 -29 28 -51 89 -60 89 -13 0 11 -7 15 -15 10 -14 -9 -19 160 -7 257 12 98 39 -47 41 -215 1 -174 48 -250 89 -144 6 17 21 26 32 19 26 -16 25 3 -2 54 -12 22 -24 89 -26 148 -4 102 -71 223 -110 199 -7 -4 -28 18 -46 50 -39 67 -29 83 93 159 82 50 88 71 26 87 -84 23 -140 15 -128 -17 7 -16 3 -30 -8 -30 -11 0 -25 14 -32 30 -13 34 -19 35 -81 10z m-1117 -432 c19 -28 31 -54 28 -57 -85 -71 -182 -32 -142 57 31 66 71 66 114 0z m-1023 -176 c40 -26 261 -100 554 -186 174 -50 175 -51 137 -60 -18 -5 -84 5 -146 21 -61 16 -134 27 -161 24 -28 -3 -50 0 -50 8 0 16 -121 61 -166 61 -19 0 -34 -11 -34 -25 -1 -17 -5 -18 -15 -3 -8 12 -28 28 -45 35 -17 8 -10 10 15 5 25 -4 45 0 45 10 0 27 -91 58 -171 58 -44 0 -69 10 -69 27 0 58 40 67 106 25z m414 -14 c69 -34 96 -38 124 -20 27 16 36 16 36 0 0 -13 20 -19 46 -14 56 11 114 -39 74 -64 -73 -45 -279 4 -370 88 -69 64 -31 68 90 10z m597 -32 c124 -59 176 -177 100 -227 -9 -6 -8 -41 3 -78 10 -37 14 -77 8 -89 -6 -12 4 -4 22 18 32 38 33 36 20 -43 -12 -78 25 -153 45 -91 5 13 18 24 30 24 12 0 6 -16 -12 -37 -26 -28 -30 -58 -20 -135 10 -83 8 -94 -15 -72 -16 14 -29 32 -30 40 -1 8 -12 37 -25 64 l-24 50 10 -53 c6 -29 16 -68 23 -85 7 -19 -1 -37 -21 -44 -39 -15 -57 -1 -60 49 -2 20 -25 72 -51 115 -26 43 -46 85 -43 95 2 9 -19 43 -46 76 -28 33 -51 68 -51 78 0 10 -13 13 -28 7 -21 -8 -31 16 -42 90 -34 246 35 329 207 248z m1093 -106 c17 -33 42 -61 56 -62 13 -1 -6 -14 -43 -30 -36 -16 -99 -60 -140 -97 -158 -147 -216 -174 -296 -141 -39 16 -111 33 -160 38 -49 5 -106 23 -125 40 -19 18 -45 32 -57 32 -25 0 -105 105 -105 138 0 37 30 25 169 -68 284 -191 525 -161 500 60 l-13 120 60 -57 c65 -61 123 -26 92 56 -22 56 30 32 62 -29z m-1621 -142 c-6 -10 2 -13 17 -7 16 6 34 -2 40 -19 9 -21 2 -27 -22 -19 -27 8 -25 3 6 -22 35 -29 41 -29 46 -3 11 52 83 60 127 14 21 -23 47 -42 57 -42 11 0 33 -27 49 -59 36 -69 38 -81 11 -81 -11 0 -20 11 -20 24 0 42 -86 116 -134 116 -74 0 -82 -59 -14 -114 32 -26 106 -88 164 -137 108 -91 156 -117 97 -53 -18 21 -38 81 -44 135 l-11 99 49 -110 c27 -60 67 -146 89 -190 46 -90 41 -112 -12 -63 -21 18 -45 33 -56 34 -10 0 -58 41 -108 90 -96 96 -123 109 -113 54 8 -46 56 -144 71 -148 7 -1 30 -4 52 -7 73 -10 153 -50 140 -70 -48 -78 -354 74 -418 208 -19 40 -43 68 -53 62 -29 -18 -77 115 -53 146 14 17 13 39 -4 70 -19 37 -20 68 -3 151 0 5 14 -3 31 -17 16 -13 25 -32 19 -42z m862 -159 c17 -34 28 -81 25 -105 -8 -48 -53 17 -85 121 -21 67 23 55 60 -16z m1329 -18 c0 -10 -15 -34 -34 -52 -41 -41 -46 -108 -11 -145 35 -37 31 -60 -15 -89 -22 -13 -40 -32 -40 -41 0 -9 10 -10 23 -2 15 9 18 5 9 -9 -8 -13 -23 -19 -32 -13 -9 6 -22 2 -29 -8 -14 -23 -91 -4 -91 23 0 45 -55 -30 -78 -107 -22 -71 -20 -87 10 -120 33 -36 32 -38 -6 -38 -29 0 -46 21 -64 80 -13 44 -33 80 -43 80 -11 0 -26 14 -32 31 -12 32 66 115 93 99 9 -5 27 4 40 20 21 25 17 30 -23 31 -44 1 -45 2 -6 18 22 9 67 54 98 100 68 98 231 198 231 142z m-2704 -134 c-9 -50 -43 -53 -71 -7 -23 36 -20 40 26 40 38 0 50 -9 45 -33z m82 -100 c5 -4 -19 -7 -53 -7 -49 0 -64 -9 -69 -45 -8 -58 -74 -68 -127 -19 -23 21 -54 43 -70 49 -16 7 0 13 36 13 36 1 65 11 65 21 0 17 197 7 218 -12z m-1318 -4 c0 -35 -94 -101 -165 -114 -91 -16 -101 15 -16 51 33 13 70 37 83 52 25 30 98 39 98 11z m-991 -21 c17 -28 -40 -41 -122 -28 -61 10 -68 15 -36 28 55 21 145 21 158 0z m-109 -117 c61 -36 117 -65 125 -65 8 0 15 -10 15 -22 0 -12 -31 -4 -70 19 -42 25 -70 33 -70 19 0 -49 91 -153 174 -198 51 -28 83 -58 77 -73 -10 -26 6 -49 124 -178 63 -68 63 -71 17 -59 -60 15 -311 264 -362 359 -38 70 -78 92 -168 93 -63 0 -142 88 -142 158 l0 56 85 -23 c47 -12 135 -51 195 -86z m4549 62 c7 -19 3 -43 -8 -54 -13 -13 -13 -29 2 -46 33 -41 4 -87 -55 -87 -45 0 -51 7 -43 50 8 41 4 46 -18 28 -34 -29 -34 -20 3 70 33 77 96 98 119 39z m-2139 -32 c-4 -117 -51 -168 -89 -96 -34 63 -24 96 34 118 30 11 55 21 56 21 0 1 0 -18 -1 -43z m3002 -35 c15 0 28 -13 28 -30 0 -16 -7 -30 -16 -30 -9 0 -51 -54 -94 -120 -43 -66 -87 -119 -99 -118 -11 0 -10 6 4 11 14 6 25 22 25 37 0 15 -11 30 -25 35 -30 10 31 155 65 155 12 0 31 25 43 55 12 31 26 44 31 30 5 -14 22 -25 38 -25z m-3692 -9 c0 -5 -22 -31 -49 -58 -65 -65 -81 -138 -56 -247 11 -51 13 -112 4 -143 -9 -29 -27 -93 -41 -143 -13 -49 -50 -137 -81 -195 -39 -71 -57 -133 -57 -196 0 -56 -8 -87 -20 -79 -11 7 -20 -10 -20 -38 0 -37 -8 -48 -30 -39 -16 6 -30 1 -30 -12 0 -16 -11 -17 -41 -1 -59 32 -147 233 -148 340 -1 78 -7 91 -46 96 -47 7 -70 124 -24 124 12 0 15 10 7 23 -35 58 8 348 57 380 12 7 12 16 0 24 -11 7 -43 -21 -71 -62 -28 -41 -79 -104 -114 -140 -75 -79 -73 -138 4 -129 74 7 86 -26 36 -96 -62 -87 -143 -63 -107 30 6 17 0 44 -13 60 -28 34 -100 41 -100 10 0 -11 9 -20 20 -20 28 0 24 -64 -6 -100 -20 -26 -94 -53 -94 -36 0 3 -13 48 -29 99 -31 102 7 180 85 175 31 -2 31 -3 -1 -12 -44 -11 -45 -43 -3 -60 21 -8 54 12 97 59 l65 70 -172 10 c-195 11 -195 11 -152 -32 28 -28 27 -33 -7 -51 -49 -27 -93 24 -93 108 0 49 7 59 40 53 22 -3 135 -11 250 -16 l210 -10 87 101 c93 108 123 124 123 67 0 -20 24 -53 52 -75 29 -21 59 -57 68 -80 13 -35 16 -32 29 25 8 36 24 65 35 65 12 0 16 -22 8 -55 -7 -30 -18 -185 -25 -345 -7 -159 -21 -301 -32 -315 -13 -17 -13 -25 3 -25 12 0 22 -20 22 -45 0 -25 9 -58 20 -75 13 -20 16 36 8 165 -10 169 -7 195 20 195 18 0 32 10 32 21 0 12 -8 16 -18 10 -9 -6 -22 12 -27 39 -6 32 0 50 15 50 24 0 58 71 51 108 -1 9 25 12 58 5 56 -11 59 -9 37 26 -17 28 -39 35 -78 28 -62 -13 -93 21 -57 64 13 15 18 42 12 59 -7 16 -4 30 5 30 10 0 22 18 28 40 6 25 33 45 72 53 34 6 56 21 49 32 -14 22 68 94 108 95 14 0 25 -4 25 -9z m-1330 -94 c8 -30 4 -58 -8 -66 -13 -8 -22 2 -22 24 0 20 -10 47 -22 59 -12 12 -16 33 -8 46 19 30 44 4 60 -63z m-18 -169 c82 -83 148 -161 148 -171 0 -11 18 -14 40 -7 29 9 40 4 40 -20 0 -18 -9 -27 -22 -19 -15 9 -14 -1 2 -30 38 -72 6 -71 -54 1 -31 38 -122 142 -202 233 -183 207 -149 216 48 13z m4277 113 c18 -29 -34 -101 -72 -101 -38 0 -55 34 -41 85 9 37 93 49 113 16z m-554 -147 c15 6 21 -2 15 -18 -10 -25 82 -96 126 -96 10 0 54 -15 97 -34 42 -18 82 -32 89 -31 7 2 22 -31 35 -73 20 -68 28 -74 81 -67 32 5 75 -1 95 -12 32 -19 32 -22 4 -22 -18 -1 -58 -14 -90 -31 -62 -32 -126 15 -127 94 0 46 -87 101 -225 143 -83 25 -141 61 -215 133 -126 123 -129 161 -5 73 52 -37 106 -64 120 -59z m250 -356 c44 -77 44 -96 1 -90 -34 6 -62 56 -65 117 -2 53 25 42 64 -27z m-2208 -23 c-11 -36 -25 -79 -30 -96 -5 -18 4 -44 22 -58 45 -38 38 -66 -11 -40 -23 12 -37 27 -31 33 6 6 -7 26 -29 44 l-41 33 48 51 c26 28 44 62 39 75 -4 13 6 23 23 23 25 0 27 -11 10 -65z m-1301 -33 c-9 -69 -66 -100 -108 -59 -44 45 -9 107 61 107 44 0 52 -8 47 -48z m1424 -52 c-15 -39 -28 -50 -42 -36 -15 15 -11 42 14 89 42 78 63 38 28 -53z m-2550 37 c0 -9 -16 -15 -36 -12 -20 3 -55 -5 -77 -17 -22 -11 -76 -25 -120 -29 -45 -4 -109 -22 -143 -39 -78 -39 -108 -14 -74 64 l26 57 212 -4 c117 -1 212 -11 212 -20z m1356 -29 c6 -21 2 -43 -8 -49 -29 -18 -21 -49 12 -49 41 0 38 -73 -4 -89 -40 -15 -93 43 -77 83 5 14 -3 26 -19 26 -20 0 -28 21 -26 66 3 77 103 87 122 12z m-280 -93 c29 -26 42 -28 49 -10 22 63 105 -3 105 -84 0 -40 -86 -41 -120 -1 -15 18 -42 25 -70 18 -35 -9 -49 -1 -59 30 -26 81 27 107 95 47z m2574 -13 c0 -15 -14 -33 -31 -40 -18 -6 -25 -22 -17 -35 8 -14 5 -18 -8 -10 -11 8 -27 5 -34 -7 -19 -31 -50 -24 -50 12 0 21 11 28 31 21 20 -8 37 4 49 37 20 54 60 68 60 22z m-2558 -212 c10 0 18 15 18 34 0 21 27 2 75 -55 122 -144 167 -179 230 -179 46 0 57 -7 47 -32 -7 -18 5 -61 25 -95 21 -35 49 -99 63 -143 33 -106 51 -122 94 -88 34 27 34 26 1 -26 -38 -60 -45 -118 -17 -147 10 -10 22 -41 25 -68 10 -71 -119 -85 -161 -17 -26 42 -26 44 5 19 29 -25 33 -23 33 15 0 31 -12 42 -47 42 -35 0 -63 26 -110 102 -60 95 -100 116 -118 62 -6 -16 5 -19 28 -11 30 10 32 8 12 -14 -20 -22 -33 -22 -73 0 -54 29 -120 15 -107 -23 4 -13 19 -27 34 -32 15 -5 21 0 13 12 -7 12 -2 28 11 36 13 8 18 6 12 -4 -6 -10 1 -35 16 -56 25 -34 29 -35 41 -5 7 18 21 33 32 33 11 0 15 -13 9 -30 -7 -16 -5 -30 3 -30 9 0 15 -25 15 -55 -1 -43 14 -62 65 -88 39 -19 55 -37 40 -42 -19 -7 -16 -20 12 -52 38 -42 38 -43 -5 -43 -24 0 -43 9 -43 21 0 11 -16 26 -35 33 -100 36 -318 359 -405 599 -16 46 -46 101 -65 122 -39 42 -49 87 -11 49 38 -38 56 -28 56 27 0 29 9 68 20 88 14 27 11 44 -10 61 -59 49 -28 58 62 19 50 -21 100 -39 110 -39z m277 -29 c39 -104 45 -136 23 -122 -27 16 -102 159 -102 193 0 34 60 -20 79 -71z m4429 -23 c15 -39 -1 -68 -39 -68 -18 0 -29 20 -29 50 0 56 48 69 68 18z m168 -35 c6 -45 -1 -53 -45 -53 -56 0 -71 52 -27 96 36 36 65 18 72 -43z m155 39 c27 -19 94 -27 209 -26 l170 2 150 -105 c83 -58 179 -124 215 -146 58 -37 86 -77 53 -77 -36 0 -208 110 -208 133 0 15 -7 27 -15 27 -8 0 -46 26 -83 58 -90 77 -176 92 -285 50 -94 -37 -141 -68 -101 -68 13 0 24 -9 24 -20 0 -11 -13 -20 -30 -20 -16 0 -30 9 -30 20 0 11 -22 20 -50 20 -57 0 -64 23 -20 60 44 37 37 54 -30 67 -33 7 -60 21 -60 33 0 29 44 25 91 -8z m-258 -122 c6 -16 28 -30 48 -30 20 0 42 -9 49 -20 7 -11 34 -20 60 -20 30 0 52 -15 60 -40 7 -22 21 -40 31 -40 11 0 20 -16 21 -35 1 -21 5 -25 11 -10 16 38 56 30 111 -21 60 -56 124 -42 159 35 13 27 31 45 40 39 29 -18 19 -44 -42 -113 -32 -37 -64 -92 -72 -122 -17 -67 -86 -110 -111 -70 -25 40 -22 69 12 97 41 34 38 60 -9 60 -21 0 -48 16 -59 35 -20 33 -21 33 -21 -1 -1 -27 -14 -35 -46 -30 -35 5 -44 18 -41 61 3 41 -6 55 -33 55 -20 0 -47 14 -61 30 -14 17 -42 30 -62 30 -21 0 -38 9 -38 20 0 11 -17 20 -39 20 -46 0 -69 31 -53 71 14 38 70 37 85 -1z m667 -61 c0 -51 13 -65 120 -135 94 -62 140 -81 200 -82 71 -3 76 -37 10 -72 -41 -22 -57 -24 -64 -6 -5 13 -22 19 -37 13 -18 -7 -29 1 -29 21 0 24 -20 32 -80 32 -53 0 -78 8 -75 25 3 14 -10 23 -28 19 -40 -6 -67 28 -37 46 31 19 24 50 -12 50 -21 0 -28 11 -20 31 7 18 3 26 -8 19 -32 -20 -46 45 -17 76 37 40 77 20 77 -37z m-704 -184 c7 -49 -17 -57 -77 -25 -49 27 -28 84 29 76 26 -4 44 -23 48 -51z m192 3 c17 -44 -3 -68 -57 -68 -42 0 -71 33 -71 82 0 32 115 20 128 -14z m-180 -83 c9 -8 35 -15 59 -15 29 0 45 -14 49 -45 6 -37 -3 -45 -45 -45 -28 0 -52 11 -53 25 -1 14 -8 3 -16 -25 -8 -31 -28 -50 -51 -50 -48 0 -61 39 -25 73 15 14 24 42 19 61 -10 37 34 51 63 21z m298 -66 c45 -52 29 -78 -41 -69 -30 4 -62 8 -70 9 -19 1 -20 69 -2 88 26 25 78 13 113 -28z m-5997 -18 c14 -22 -29 -121 -52 -121 -20 0 -22 63 -5 108 14 36 40 42 57 13z m5797 -89 c15 -37 -24 -72 -79 -72 -24 0 -50 -9 -57 -20 -7 -11 -21 -20 -31 -20 -11 0 -19 9 -19 20 0 11 14 20 30 20 17 0 30 17 30 37 0 65 104 95 126 35z m-4808 -128 c25 -24 25 -30 0 -46 -21 -13 -17 -17 17 -18 40 0 139 -73 122 -90 -4 -3 -56 13 -117 35 -60 23 -99 45 -85 50 35 12 31 58 -5 72 -16 7 -30 21 -30 32 0 24 60 3 98 -35z m5027 4 c20 -19 -7 -68 -37 -68 -15 0 -28 12 -28 27 0 44 38 68 65 41z m-176 -83 c14 -37 -21 -64 -84 -65 -55 0 -63 68 -11 97 41 23 79 10 95 -32z m138 -39 c20 -20 -69 -106 -109 -106 -54 0 -66 38 -27 81 35 38 109 52 136 25z m190 -58 c29 -63 -5 -162 -62 -180 -19 -6 -35 -21 -35 -33 0 -12 -33 11 -74 52 -53 53 -67 80 -51 96 25 25 65 6 65 -32 0 -26 41 -51 84 -51 13 0 12 10 -2 28 -14 17 -18 51 -10 85 25 105 49 115 85 35z m102 22 c24 14 62 -70 45 -98 -6 -11 -18 1 -27 25 -9 25 -33 43 -56 43 -25 0 -41 13 -41 32 0 27 6 28 29 9 16 -14 39 -19 50 -11z m-469 -80 c0 -52 -99 -68 -118 -19 -18 48 5 72 65 65 38 -4 53 -18 53 -46z m-5629 -51 c22 -11 39 -38 39 -60 0 -22 14 -39 31 -39 17 0 27 -8 21 -17 -23 -37 -100 -13 -111 33 -6 26 -18 46 -26 45 -68 -5 -76 -1 -51 28 31 36 47 37 97 10z m-705 -83 c13 -13 24 -54 24 -90 0 -91 62 -152 129 -126 32 12 54 11 62 -1 6 -11 5 -18 -5 -15 -9 2 -46 -11 -82 -31 -36 -19 -74 -29 -85 -23 -27 17 -24 -17 5 -46 19 -19 18 -24 -1 -24 -35 0 -83 50 -83 86 0 34 -74 59 -91 32 -15 -23 -189 -24 -189 0 0 10 25 24 55 31 64 16 109 49 96 70 -5 8 23 16 63 17 85 4 112 24 94 72 -11 29 -17 30 -45 6 -51 -43 -99 -54 -148 -35 -34 14 -36 19 -10 20 19 0 64 19 100 41 76 47 80 47 111 16z m5278 -102 c27 1 49 -13 57 -36 6 -21 29 -38 49 -38 56 0 67 -35 17 -51 -43 -14 -42 -15 14 -44 70 -35 169 -125 169 -152 0 -10 -16 -6 -35 11 -19 16 -49 35 -67 41 -42 15 -374 253 -391 280 -9 14 12 15 65 4 43 -9 98 -15 122 -15z m1532 -236 c13 -2 40 -1 59 1 19 2 35 -6 35 -18 0 -11 -18 -21 -40 -21 -22 0 -40 -13 -40 -30 0 -16 -12 -30 -27 -30 -18 0 -27 28 -27 85 -1 47 3 69 8 50 5 -19 20 -36 32 -37z m-5638 -40 c-2 -93 -21 -176 -49 -210 -15 -17 -18 -55 -10 -101 11 -55 19 -67 32 -46 15 23 19 21 19 -11 1 -34 4 -35 22 -10 16 23 17 18 7 -20 -8 -27 -24 -56 -37 -64 -15 -10 -15 -21 3 -39 35 -35 31 -54 -10 -48 -35 5 -102 150 -116 251 -3 28 -12 73 -19 100 -9 37 4 74 48 140 34 50 61 102 62 117 0 14 11 22 25 18 14 -5 24 -39 23 -77z m172 33 c0 -4 5 -22 12 -39 9 -24 0 -32 -39 -32 -51 0 -89 59 -63 100 11 18 90 -7 90 -29z m159 -76 c58 -102 66 -165 30 -245 -45 -102 -55 -139 -50 -180 5 -39 4 -39 -35 -4 -39 36 -40 35 -47 -45 -8 -82 13 -103 57 -59 12 12 33 16 46 8 17 -10 17 -21 2 -36 -36 -36 -25 -71 33 -105 30 -17 40 -27 22 -22 -18 6 -51 -3 -74 -19 -73 -51 -170 37 -154 139 10 66 6 78 -28 87 -30 8 -41 27 -41 70 0 33 -18 82 -40 110 -22 28 -33 61 -25 73 8 14 21 2 33 -32 11 -30 27 -55 36 -55 23 0 20 35 -4 50 -29 18 -25 111 5 105 14 -3 24 11 22 30 -1 19 5 35 15 35 37 0 98 82 98 130 0 76 44 60 99 -35z m4949 -88 c19 -47 -9 -170 -35 -161 -25 9 -26 44 -3 99 11 27 7 33 -18 23 -23 -9 -32 -1 -32 30 0 51 69 58 88 9z m211 -12 c22 -20 24 -19 12 5 -7 17 0 12 18 -9 21 -27 25 -45 11 -59 -27 -27 -87 9 -96 55 -8 39 17 43 55 8z m-6622 -231 c-1 -47 -6 -57 -11 -29 -12 59 -34 57 -84 -10 -38 -52 -41 -52 -41 -12 -1 24 -7 59 -14 79 -12 30 -4 33 58 23 61 -10 71 -7 60 20 -8 21 -4 27 12 17 12 -8 22 -48 20 -88z m6937 61 c0 -19 -8 -40 -17 -46 -9 -6 -2 -63 16 -126 l33 -115 82 13 c45 8 115 40 155 71 98 78 277 51 277 -40 0 -25 -244 -84 -331 -81 -47 2 -113 -14 -163 -39 -46 -23 -114 -41 -150 -41 -71 2 -58 12 72 59 44 16 53 27 36 44 -18 18 -45 13 -111 -20 -48 -24 -95 -44 -104 -44 -9 0 -37 -20 -63 -43 -86 -82 -36 31 60 133 21 22 68 101 106 175 68 134 101 167 102 100z m-5352 -159 c97 -135 139 -230 115 -260 -15 -18 -5 -39 33 -74 l54 -50 -52 -13 c-50 -13 -74 -49 -32 -49 11 0 20 -9 20 -20 0 -11 -13 -20 -29 -20 -16 0 -39 -16 -51 -35 -19 -32 -21 -32 -15 4 3 26 -9 42 -35 47 -22 4 -49 17 -60 27 -13 13 -8 15 15 6 20 -7 50 -1 68 14 30 24 27 28 -25 37 -69 12 -78 67 -13 76 62 9 53 81 -29 240 -100 192 -80 230 36 70z m-852 -106 c64 0 170 -125 170 -201 0 -32 -8 -59 -18 -59 -21 0 -42 49 -42 100 0 38 -17 46 -135 70 -36 7 -65 20 -65 29 0 9 -5 46 -11 84 -11 67 -11 67 22 22 19 -25 54 -45 79 -45z m541 18 c6 -10 2 -18 -10 -18 -11 0 -21 -15 -21 -32 0 -27 -5 -28 -30 -8 -46 38 -39 99 10 86 22 -6 46 -19 51 -28z m-166 -97 c17 -64 13 -74 -48 -125 -102 -84 -155 -46 -91 63 18 31 28 61 21 67 -26 26 14 77 57 70 31 -4 49 -26 61 -75z m5512 -20 c-27 -62 -46 -75 -66 -43 -12 19 68 130 83 114 6 -5 -2 -37 -17 -71z m-1356 -22 c120 -64 100 -211 -41 -292 -27 -15 -77 -46 -110 -67 -94 -62 -113 -68 -130 -40 -19 30 18 100 53 100 132 0 243 199 164 293 -27 34 7 37 64 6z m-3981 -83 c0 -9 -20 -25 -45 -35 -25 -10 -34 -19 -20 -20 14 0 25 -24 25 -53 0 -32 -9 -48 -25 -43 -13 4 -42 -9 -64 -29 -51 -48 -99 -38 -108 20 -8 58 35 114 64 85 38 -38 58 -22 46 38 -17 85 36 137 89 89 21 -19 38 -42 38 -52z m6075 -1 c-16 -24 -55 -59 -87 -77 -32 -18 -56 -43 -53 -55 2 -12 -8 -17 -23 -11 -15 6 -32 -4 -39 -21 -6 -17 -26 -31 -42 -31 -17 0 -31 -7 -31 -15 0 -47 -375 -149 -470 -127 -50 11 62 71 220 117 22 6 65 32 97 58 31 26 73 47 95 47 21 0 38 9 38 20 0 11 11 20 25 20 14 0 75 26 135 59 139 74 176 78 135 16z m-372 -41 c-12 -15 -83 -58 -157 -95 -77 -40 -184 -118 -249 -184 -136 -135 -137 -136 -137 -45 0 49 9 70 30 70 16 0 43 32 59 70 16 39 51 78 77 89 27 10 53 31 59 46 8 20 45 29 121 30 61 1 127 11 147 22 51 30 76 28 50 -3z m-7043 -64 c0 -56 -48 -69 -68 -18 -15 39 1 68 39 68 18 0 29 -20 29 -50z m1522 -92 c236 -218 311 -258 332 -178 11 43 55 54 77 19 7 -11 3 -32 -9 -47 -12 -14 -15 -32 -7 -40 7 -8 -3 -8 -23 0 -27 10 -35 7 -28 -14 7 -20 44 -28 131 -28 67 0 127 -6 134 -13 19 -18 -88 -97 -132 -97 -45 0 -49 -37 -6 -53 17 -7 27 -23 22 -37 -6 -14 4 -46 22 -71 30 -44 30 -45 -6 -31 -37 13 -37 12 -4 -21 51 -52 69 -14 28 59 l-37 63 47 -39 c26 -22 50 -41 53 -42 30 -14 20 -105 -11 -94 -32 12 -31 9 3 -31 33 -37 34 -43 6 -43 -18 0 -39 11 -48 25 -20 32 -124 79 -145 66 -23 -15 -87 63 -72 88 7 11 11 22 7 22 -86 18 -194 18 -205 1 -7 -12 -31 -22 -53 -22 -22 0 -44 -13 -51 -30 -10 -27 -157 -27 -184 1 -5 5 -21 -1 -34 -12 -18 -15 -29 -15 -38 0 -51 82 250 157 446 112 53 -12 66 -9 59 12 -5 15 5 38 22 51 35 26 -83 174 -127 160 -11 -4 -37 14 -57 39 -49 62 -78 60 -54 -3 20 -51 -35 -105 -95 -93 -30 6 -33 -29 -5 -47 12 -7 15 -21 9 -31 -23 -38 -48 -17 -71 61 -14 44 -36 80 -50 80 -45 0 -53 41 -17 81 41 46 75 49 107 12 17 -21 15 -34 -8 -53 -27 -23 -26 -29 11 -55 59 -41 79 -10 60 92 -17 92 -121 227 -121 158 0 -19 -13 -35 -30 -35 -36 0 -41 81 -6 116 38 38 64 29 158 -58z m-1222 32 c-5 -11 -21 -19 -35 -17 -14 1 -25 -10 -25 -25 0 -14 -18 -36 -40 -48 -39 -21 -39 -23 13 -68 65 -55 51 -84 -56 -113 -103 -27 -110 -18 -80 94 35 134 99 207 173 202 33 -3 56 -14 50 -25z m805 -93 c-6 -23 -28 -47 -48 -52 -59 -16 -43 -39 52 -76 95 -36 125 -78 89 -122 -27 -32 -110 -36 -128 -7 -7 11 -50 40 -96 63 -49 25 -73 47 -57 52 15 6 48 -1 73 -15 25 -14 58 -21 73 -15 16 5 -9 27 -58 52 -78 40 -112 83 -66 83 10 0 21 20 25 44 4 28 25 49 56 57 64 16 99 -11 85 -64z m-1165 25 c0 -21 -13 -43 -29 -49 -22 -8 -16 -25 30 -74 93 -100 68 -123 -81 -78 -39 12 -123 21 -187 20 -156 -2 -143 27 64 134 187 96 203 100 203 47z m1307 8 c7 -16 25 -30 40 -30 47 0 53 -54 12 -91 -22 -19 -40 -54 -40 -77 -2 -42 -2 -42 -19 1 -9 24 -27 49 -39 56 -12 8 -16 23 -8 35 7 12 12 47 11 79 -1 61 24 77 43 27z m-498 -60 c16 -38 41 -70 55 -71 42 -1 249 -199 209 -199 -39 0 -67 20 -160 113 -35 35 -81 67 -103 70 -30 6 -42 26 -46 82 -8 94 7 95 45 5z m4191 -40 c-14 -16 -36 -30 -50 -30 -14 0 -31 -15 -38 -33 -7 -18 -19 -27 -26 -20 -18 18 74 113 110 113 23 0 24 -6 4 -30z m1540 -24 c0 -17 -57 -66 -79 -66 -11 0 -21 4 -21 8 0 5 -5 22 -11 39 -8 18 2 33 25 38 37 8 86 -2 86 -19z m649 -8 c29 -24 49 -55 43 -70 -6 -16 0 -29 14 -30 31 -3 -65 -24 -311 -69 -191 -35 -274 -76 -113 -57 46 6 77 2 70 -8 -12 -20 87 -72 103 -55 6 5 -1 24 -15 41 -14 17 -20 37 -13 44 17 16 73 -58 60 -79 -5 -8 5 -15 22 -15 17 0 31 10 31 22 0 13 18 18 41 12 33 -9 38 -4 28 29 -12 38 -9 38 44 11 31 -16 69 -24 85 -19 61 22 5 -47 -69 -85 -127 -64 -549 -1 -549 82 0 38 57 87 116 100 131 29 191 56 260 120 87 80 84 80 153 26z m-6677 -87 c-19 -39 -43 -71 -54 -71 -25 0 -83 -135 -69 -159 14 -23 -78 -81 -128 -81 -54 0 -53 5 29 94 38 42 70 84 70 94 0 34 102 152 131 152 16 0 29 15 29 33 0 19 6 28 13 21 7 -7 -3 -44 -21 -83z m369 -52 c47 -25 51 -84 7 -120 -25 -21 -39 -21 -70 -3 -34 22 -38 19 -38 -26 0 -27 -10 -50 -21 -50 -12 0 -16 8 -10 19 6 10 3 24 -9 31 -31 19 -24 90 10 90 17 0 30 13 30 28 0 24 20 41 56 50 4 1 24 -7 45 -19z m548 -85 c1 -30 -5 -54 -13 -54 -9 0 -16 10 -16 22 0 17 -7 17 -27 0 -38 -31 -93 -6 -93 43 0 110 144 99 149 -11z m4068 -129 c-63 -104 -94 -124 -192 -124 -128 -1 -99 73 33 83 48 3 73 19 94 59 31 61 94 106 105 76 3 -11 -14 -53 -40 -94z m299 91 c13 -13 24 -40 24 -60 0 -20 10 -36 21 -36 14 0 17 -33 9 -95 -7 -52 -12 -115 -12 -140 2 -58 -19 -56 -63 4 -53 73 -80 152 -49 146 13 -3 21 11 18 30 -3 19 3 35 14 35 10 0 23 -16 27 -35 8 -33 10 -33 24 1 17 39 9 55 -32 61 -49 7 -77 35 -77 74 0 44 58 53 96 15z m-4640 -20 c35 -35 30 -56 -13 -56 -20 0 -53 -18 -73 -40 -39 -43 -110 -54 -110 -18 0 12 -13 17 -30 11 -47 -18 -35 34 15 67 41 27 111 51 166 58 12 1 32 -9 45 -22z m-309 -67 c-7 -17 5 -49 26 -73 27 -30 30 -44 12 -51 -14 -4 -25 -21 -25 -37 0 -15 -18 -28 -40 -28 -22 0 -40 10 -40 22 0 14 -24 19 -60 14 -33 -5 -60 -7 -60 -6 0 87 100 170 127 105 5 -14 11 -6 11 17 2 44 18 68 45 68 9 0 10 -14 4 -31z m1677 -129 c13 0 11 -12 -4 -30 -26 -31 -100 -42 -100 -14 0 41 69 114 76 79 4 -19 16 -35 28 -35z m-763 -7 c-16 -16 10 -31 103 -55 69 -18 169 -49 222 -70 68 -27 100 -31 110 -15 9 15 40 0 90 -43 97 -84 82 -91 -126 -61 -183 27 -211 23 -151 -20 21 -16 32 -35 24 -43 -8 -7 -52 24 -98 69 -156 151 -293 177 -295 55 -1 -91 -32 -96 -107 -17 -92 97 -91 102 15 118 60 9 106 32 143 70 30 32 64 52 74 46 11 -7 9 -21 -4 -34z m1158 -3 c26 -27 17 -30 -75 -30 -100 0 -132 25 -89 68 21 22 129 -4 164 -38z m-1886 0 c14 -36 -26 -90 -65 -90 -28 0 -39 82 -15 107 24 23 68 14 80 -17z m1723 -54 c31 -31 31 -56 -1 -56 -42 1 -81 34 -66 58 17 28 37 28 67 -2z m-1828 -49 c7 -18 9 -37 3 -42 -18 -19 -71 14 -71 44 0 41 52 40 68 -2z m5547 -12 c-5 -14 -3 -43 5 -65 8 -22 6 -51 -5 -65 -16 -20 -13 -23 12 -14 33 13 153 -30 153 -54 0 -33 -144 -62 -164 -34 -15 21 -17 19 -9 -8 7 -19 3 -35 -8 -35 -10 0 -19 -10 -19 -22 0 -13 15 -17 35 -9 22 8 28 6 15 -5 -11 -10 -65 -25 -119 -32 -95 -12 -110 12 -21 34 30 7 27 10 -15 12 -49 2 -64 -15 -58 -62 1 -7 -18 -30 -43 -50 -51 -40 -96 -102 -57 -78 60 37 143 -9 143 -78 0 -37 15 -82 32 -100 37 -36 65 -24 33 15 -42 50 -39 144 5 152 45 8 110 60 110 87 0 10 18 37 40 61 22 23 40 54 40 68 0 15 13 21 31 14 19 -7 49 7 74 34 29 30 46 37 51 21 5 -14 -24 -55 -64 -91 -85 -78 -95 -121 -23 -103 27 7 54 3 61 -8 7 -11 19 -17 28 -11 8 5 45 -18 83 -50 49 -42 59 -59 35 -59 -18 0 -39 9 -46 19 -6 11 -39 14 -72 8 -35 -7 -81 -1 -109 14 -84 45 -72 9 18 -55 71 -50 115 -63 242 -75 152 -14 155 -16 119 -52 -68 -65 -303 -87 -284 -25 6 21 -117 146 -144 146 -9 0 -11 -19 -5 -41 9 -38 4 -41 -60 -29 -85 16 -113 -29 -64 -105 36 -54 19 -94 -18 -43 -29 40 -164 86 -206 69 -42 -16 -92 49 -63 83 14 17 11 34 -10 55 -27 27 -36 21 -83 -59 -52 -88 -91 -116 -91 -64 0 27 296 470 360 538 19 21 51 69 72 107 35 65 83 99 63 44z m-5837 -130 c52 -110 161 -250 161 -205 0 17 -13 47 -30 69 -16 21 -29 53 -29 70 1 22 11 17 38 -17 28 -36 39 -41 48 -20 6 16 12 6 12 -22 1 -28 -20 -83 -47 -123 -45 -67 -47 -78 -23 -130 40 -83 56 -212 26 -202 -13 5 -28 43 -34 87 -10 75 -14 79 -110 104 -178 46 -439 83 -457 65 -9 -9 -34 0 -55 21 -21 21 -54 38 -73 38 -23 0 -16 10 22 30 73 38 73 38 73 -10 0 -47 25 -52 60 -10 33 40 66 38 154 -9 44 -24 92 -35 120 -28 27 7 67 -2 95 -21 49 -32 49 -31 45 31 -7 110 -101 190 -187 159 -103 -38 -100 -19 17 105 128 136 119 135 174 18z m4522 65 c50 -7 113 -24 140 -39 l50 -28 -56 -21 c-115 -44 -219 -23 -324 67 l-60 51 80 -9 c44 -6 121 -15 170 -21z m-4200 -30 c0 -8 -13 -26 -30 -40 -16 -14 -30 -18 -30 -9 0 8 -19 -2 -43 -23 -42 -38 -42 -38 -28 9 13 41 10 45 -27 34 -32 -11 -39 -7 -30 18 7 17 20 26 29 21 9 -6 21 -3 27 6 12 21 132 6 132 -16z m-240 1 c24 -16 25 -24 4 -45 -21 -21 -29 -20 -45 4 -36 58 -17 77 41 41z m4880 -479 c0 -19 10 -44 23 -57 32 -32 6 -85 -43 -85 -26 0 -48 20 -62 55 -19 49 -23 51 -41 20 -10 -20 -51 -49 -91 -65 -86 -36 -76 -37 -116 3 -30 30 -37 27 -93 -30 -34 -35 -71 -57 -82 -50 -12 7 -1 27 26 48 46 34 46 34 5 60 -78 48 -36 96 68 76 50 -9 98 -12 107 -6 10 6 36 -8 58 -30 46 -46 61 -51 61 -19 0 12 24 47 53 77 56 60 127 62 127 3z m1040 -87 c-1 -66 -73 -156 -90 -112 -14 37 40 157 71 157 10 0 19 -20 19 -45z m-775 -3 c31 -23 49 -72 27 -72 -5 0 -22 -5 -38 -11 -38 -15 -96 44 -81 82 14 36 46 36 92 1z m-109 -104 c8 -58 -46 -101 -86 -68 -16 14 -30 41 -30 61 0 68 106 75 116 7z m-3381 -7 c60 -50 95 -141 55 -141 -17 0 -30 9 -30 19 0 26 -60 4 -111 -41 -49 -45 -209 -103 -209 -77 0 10 9 19 20 19 11 0 20 20 21 45 0 43 1 43 29 8 24 -32 32 -34 56 -10 16 15 52 47 81 72 53 44 71 105 33 105 -11 0 -20 9 -20 20 0 29 24 23 75 -19z m3616 -60 c-8 -12 -31 -17 -50 -11 -22 7 -41 -1 -48 -19 -13 -35 -84 -42 -104 -10 -19 32 30 79 82 79 26 0 53 10 60 22 9 15 23 12 44 -8 16 -17 23 -40 16 -53z m-4573 28 c20 12 202 -156 202 -186 0 -37 -51 -27 -92 19 -21 23 -72 60 -113 81 l-76 38 -19 -52 c-30 -78 -25 -130 10 -116 17 6 30 2 30 -9 0 -11 -13 -25 -30 -31 -46 -18 -36 -81 21 -130 42 -36 52 -39 62 -13 13 35 47 20 47 -21 0 -17 -20 -29 -49 -29 -27 0 -58 -16 -69 -35 -17 -28 -21 -21 -21 39 -1 58 -8 72 -31 63 -48 -18 -102 9 -73 38 12 12 23 64 24 114 0 50 13 108 29 129 16 21 24 46 18 56 -27 43 10 76 63 56 29 -11 59 -16 67 -11z m3910 -1 c65 -25 23 -128 -51 -128 -50 0 -87 74 -56 111 26 31 57 36 107 17z m-148 -87 c0 -62 81 -126 135 -107 14 5 25 0 25 -10 0 -11 18 -16 40 -10 23 6 40 1 40 -13 0 -13 8 -18 17 -13 10 6 35 -12 55 -41 21 -28 49 -63 63 -78 55 -57 14 -95 -42 -39 -39 38 -66 39 -34 1 20 -24 12 -34 -50 -60 -63 -26 -72 -38 -61 -80 7 -27 3 -54 -7 -61 -12 -7 -2 -47 23 -100 24 -48 50 -83 60 -78 9 6 16 1 16 -11 0 -32 -48 -25 -91 14 -22 20 -79 66 -129 104 -49 38 -107 90 -128 114 -47 56 -112 31 -112 -44 0 -27 -8 -49 -17 -49 -10 0 -23 -27 -30 -59 -7 -38 -66 -115 -162 -211 -83 -83 -151 -161 -151 -173 0 -12 -12 -16 -28 -11 -18 7 -25 0 -19 -22 5 -20 -9 -45 -32 -59 -35 -22 -41 -20 -42 10 0 27 -12 22 -51 -25 l-51 -60 42 86 c40 81 41 164 2 164 -21 0 -81 -172 -81 -232 0 -50 -165 -86 -270 -60 -82 21 -39 48 50 32 92 -17 111 -3 70 52 -49 65 -37 90 39 81 37 -4 76 -2 86 5 30 20 44 79 22 86 -12 4 3 36 33 72 63 75 36 83 -76 23 -72 -38 -152 -35 -91 3 19 13 20 17 2 18 -40 0 -79 123 -69 217 6 57 0 93 -16 103 -37 23 -6 58 40 46 43 -11 57 25 15 39 -20 7 -20 15 1 40 41 50 122 55 164 11 46 -50 128 -33 110 23 -12 38 34 59 160 73 l60 7 -50 -29 c-29 -17 -38 -29 -20 -29 131 -3 -214 -161 -353 -161 -70 0 -74 -35 -8 -69 33 -17 67 -30 75 -29 9 2 43 1 76 -1 l60 -4 -55 -20 c-58 -21 -75 -57 -27 -57 16 0 43 -5 60 -12 21 -8 34 5 44 43 8 30 28 70 46 88 18 18 54 64 82 102 110 153 237 266 270 239 45 -37 40 -140 -8 -140 -20 0 -48 -13 -62 -30 -34 -41 -61 -38 -48 5 8 23 -2 18 -29 -15 -22 -27 -37 -53 -32 -58 5 -4 -7 -19 -26 -33 -19 -14 -35 -38 -36 -52 0 -15 -10 -25 -22 -23 -12 2 -38 -29 -58 -70 -20 -41 -57 -116 -83 -168 -45 -89 -29 -172 18 -89 10 18 38 33 62 33 36 -1 38 -4 14 -20 -16 -11 -21 -20 -10 -20 11 0 7 -9 -10 -20 -26 -17 -25 -19 5 -20 19 0 53 20 76 45 22 25 54 59 69 76 25 28 19 39 -54 95 -53 40 -71 64 -50 64 19 0 34 -11 34 -24 0 -18 6 -18 23 -1 16 16 35 17 60 3 28 -15 40 -12 49 11 7 17 22 25 33 18 25 -16 3 27 -41 78 -17 19 -22 35 -12 35 10 0 5 9 -12 20 -18 12 -20 20 -6 20 13 0 29 -9 36 -20 8 -13 24 -9 43 10 16 16 24 39 17 50 -7 12 12 20 47 20 69 0 127 72 109 138 -8 33 -4 40 22 30 17 -7 32 -28 32 -48 0 -40 54 -93 75 -72 7 8 3 31 -11 53 -32 52 -30 68 5 33 64 -64 294 -57 307 10 4 22 -10 30 -50 28 -47 -2 -57 7 -62 53 -8 65 -34 71 -64 15 -18 -34 -27 -36 -63 -15 -34 20 -44 20 -51 0 -33 -91 -42 37 -14 210 12 81 48 85 48 6z m-2070 24 c72 -53 156 -191 109 -179 -27 8 -61 14 -76 14 -14 0 -22 11 -17 25 5 14 -9 54 -30 90 -37 61 -31 83 14 50z m-1108 -64 l65 -59 -57 -22 c-32 -12 -75 -19 -97 -16 -49 7 -69 56 -24 56 26 0 28 8 12 39 -45 84 11 85 101 2z m968 39 c40 -64 28 -98 -26 -75 -76 32 -105 57 -93 77 15 24 104 23 119 -2z m2736 7 c21 -21 -27 -67 -68 -67 -37 0 -51 40 -25 67 17 17 76 17 93 0z m-1975 -129 c18 -35 26 -76 17 -95 -8 -18 -15 -39 -16 -46 -1 -8 -9 -20 -17 -28 -8 -9 -4 -28 8 -43 18 -21 16 -24 -11 -14 -19 7 -30 25 -24 40 6 15 2 32 -9 39 -10 6 -19 2 -19 -10 0 -11 -13 -21 -29 -21 -16 0 -36 -12 -45 -27 -38 -64 -146 -21 -146 58 0 80 115 87 145 8 7 -18 17 -4 26 36 8 36 22 71 32 77 10 6 12 19 6 29 -14 23 6 59 32 59 10 0 32 -28 50 -62z m743 40 c15 -15 43 -15 95 -1 53 15 90 14 128 -2 l53 -22 -50 -8 c-73 -10 -160 -47 -160 -67 0 -34 -37 -18 -50 22 -7 22 -26 40 -41 40 -16 0 -29 14 -29 30 0 35 23 39 54 8z m-3034 -108 c0 -38 -9 -70 -20 -70 -22 0 -28 106 -7 127 23 23 27 15 27 -57z m1704 13 c-34 -22 9 -58 111 -93 62 -22 76 -36 81 -88 12 -114 -95 -77 -124 43 -7 30 -21 55 -31 55 -10 0 -17 -25 -15 -55 3 -43 -5 -55 -36 -55 -34 0 -41 15 -45 105 -6 98 -3 105 40 105 31 -1 37 -6 19 -17z m1632 -45 c-4 -12 -51 -25 -104 -30 -105 -8 -235 -48 -222 -68 4 -6 -1 -25 -11 -41 -15 -24 -18 -24 -19 -1 0 15 -15 38 -33 51 -27 21 -18 28 65 50 54 14 121 32 148 41 75 25 185 24 176 -2z m-3355 -232 c-46 -58 -159 -134 -176 -118 -15 15 159 172 191 172 19 0 15 -16 -15 -54z m2081 29 c3 -63 18 -105 37 -111 12 -4 16 -16 10 -26 -6 -10 -2 -18 10 -18 11 0 21 -9 21 -20 0 -35 -78 -21 -99 18 -11 20 -41 43 -67 49 -84 21 -52 133 38 133 27 0 49 -11 50 -25z m583 -132 c22 -83 -55 -134 -107 -71 -23 28 -20 38 20 70 58 48 75 48 87 1z m-2280 -100 c-40 -26 -48 -99 -13 -119 24 -13 29 -30 18 -57 -9 -20 -19 -49 -22 -65 -19 -95 -108 -59 -108 44 0 33 -14 76 -31 95 -35 39 -18 60 96 117 58 29 109 16 60 -15z m1930 -187 c-12 -38 -67 -63 -107 -48 -33 13 -32 16 13 41 62 34 105 38 94 7z m-575 -208 c0 -15 20 -29 45 -30 25 -2 54 -5 65 -7 11 -3 36 -6 55 -8 19 -2 35 -11 35 -21 0 -25 -126 -11 -183 20 -26 13 -49 23 -52 22 -2 -2 -18 1 -35 7 -16 5 -44 13 -61 19 -57 18 -13 42 60 34 43 -5 71 -19 71 -36z m435 -304 c-21 -109 -35 -123 -73 -76 -13 15 -46 34 -73 40 -52 13 -69 72 -21 72 15 0 33 14 39 30 7 17 31 30 54 30 27 0 47 16 54 44 24 91 42 -32 20 -140z m-689 -32 c39 -30 11 -52 -68 -52 -21 0 -38 -9 -38 -20 0 -11 -36 -20 -80 -20 -101 0 -109 49 -15 90 82 36 155 36 201 2z m2394 -57 c0 -19 7 -35 16 -35 38 0 78 -134 51 -171 -29 -40 -29 -40 -62 31 -31 68 -55 281 -26 240 11 -16 21 -46 21 -65z m-1997 -161 c-5 -37 -15 -50 -28 -37 -11 11 -13 54 -4 106 18 101 48 37 32 -69z"/> <path d="M4998 8019 c-36 -20 -29 -118 10 -144 15 -10 14 -14 -3 -15 -14 0 -25 -14 -25 -32 0 -19 11 -28 28 -22 44 17 55 -9 17 -41 -19 -15 -23 -22 -9 -15 15 8 47 -9 75 -39 57 -62 60 -43 19 116 -43 164 -72 215 -112 192z"/> <path d="M1600 7261 c-24 -15 -20 -22 20 -38 62 -23 90 -9 59 29 -28 33 -39 34 -79 9z"/> <path d="M2915 6809 c-84 -56 -101 -99 -30 -70 106 43 155 73 155 96 0 39 -44 30 -125 -26z"/> <path d="M2975 6631 c-47 -65 -45 -98 6 -85 33 9 41 2 38 -33 -5 -66 0 -86 16 -60 18 27 7 227 -12 226 -7 0 -29 -22 -48 -48z"/> <path d="M2400 6118 c0 -27 14 -69 31 -94 18 -25 34 -65 38 -89 17 -128 93 -204 119 -120 6 19 8 10 4 -20 -7 -61 35 -77 56 -22 15 39 -118 272 -196 345 l-52 49 0 -49z"/> <path d="M2659 5902 c12 -23 49 -56 82 -73 33 -17 56 -38 50 -47 -5 -9 5 -30 24 -46 41 -36 165 -97 165 -83 0 26 -153 205 -175 206 -14 1 -25 15 -25 33 0 21 -11 28 -31 20 -18 -6 -50 -2 -72 10 -36 19 -38 17 -18 -20z"/> <path d="M2931 3312 c26 -20 49 -23 74 -9 52 28 43 37 -39 37 -68 0 -71 -2 -35 -28z"/> <path d="M3346 8562 c-137 -69 -132 -82 29 -77 153 5 487 -61 624 -122 195 -88 135 -1 -74 106 -63 32 -138 74 -166 93 -89 61 -290 61 -413 0z"/> <path d="M2942 8016 c-102 -59 -111 -61 -201 -38 -92 23 -161 15 -161 -20 0 -10 12 -18 28 -18 15 0 53 -13 84 -29 l56 -29 -49 -20 c-27 -11 -37 -20 -23 -21 15 0 21 -10 14 -21 -20 -33 81 -66 158 -52 92 17 92 46 2 63 -70 13 -105 41 -82 64 7 6 36 -1 65 -17 40 -21 56 -22 61 -4 5 12 55 47 111 77 l103 54 36 -45 c60 -74 47 -115 -44 -130 -44 -7 -85 -21 -91 -31 -23 -37 -204 -76 -277 -59 -57 12 -72 10 -72 -13 0 -15 -13 -33 -30 -40 -16 -6 -30 -22 -31 -34 0 -13 -31 -45 -69 -73 -94 -68 -88 -79 39 -76 60 2 105 10 99 19 -20 33 17 119 49 113 24 -5 32 -25 28 -73 l-5 -67 145 13 c80 7 204 21 275 31 72 10 175 23 230 29 234 23 349 45 381 72 19 16 58 39 87 50 51 22 50 23 -93 118 -80 53 -145 100 -145 105 0 19 93 40 120 26 40 -20 177 27 142 49 -57 35 -351 38 -417 4 l-63 -33 100 -94 c56 -52 110 -110 120 -130 30 -56 -34 -46 -94 14 -55 55 -128 67 -128 20 0 -40 -20 -38 -52 5 -38 50 -35 86 7 71 33 -12 33 -10 2 26 -18 21 -48 70 -67 108 -63 125 -175 137 -348 36z m337 -161 c0 -29 -47 -95 -66 -95 -7 0 -13 27 -13 60 0 47 9 60 40 60 22 0 40 -11 39 -25z m-153 -207 c111 -38 127 -79 24 -62 -38 6 -70 3 -70 -7 0 -11 -10 -19 -21 -19 -12 0 -16 8 -10 18 6 10 -8 13 -32 7 -35 -9 -41 -5 -30 23 7 20 13 44 13 54 0 25 18 23 126 -14z"/> <path d="M2460 7921 c0 -10 -25 -22 -55 -27 -36 -5 -23 -9 36 -11 50 -2 102 -14 115 -27 27 -27 33 -2 12 52 -13 34 -108 45 -108 13z"/> <path d="M2180 7841 c0 -10 -29 -22 -65 -26 l-65 -7 50 -22 c28 -12 81 -46 119 -74 86 -65 159 -66 270 -3 48 26 90 47 94 45 4 -2 -10 11 -32 29 -48 41 -90 27 -76 -24 7 -30 -1 -39 -33 -39 -44 0 -61 60 -17 61 47 1 -52 59 -101 59 -38 0 -47 -8 -38 -39 5 -22 -2 -55 -17 -75 -26 -33 -28 -32 -28 17 -1 30 -6 68 -13 85 -13 35 -48 44 -48 13z"/> <path d="M4192 7711 c-19 -71 -13 -111 17 -111 37 0 65 45 35 55 -48 16 -22 40 57 53 101 16 85 55 -21 49 -59 -4 -80 -14 -88 -46z"/> <path d="M5831 7225 c24 -111 109 -207 109 -124 0 12 -8 16 -18 10 -10 -6 -14 7 -8 29 11 42 -41 140 -75 140 -11 0 -15 -24 -8 -55z"/> <path d="M5431 6966 c-23 -61 100 -242 138 -203 7 6 -2 37 -19 69 -16 32 -30 67 -30 79 0 43 -76 89 -89 55z"/> <path d="M4487 6837 c-12 -26 -32 -69 -45 -97 -12 -27 -40 -79 -62 -115 -21 -36 -33 -65 -25 -65 8 0 2 -9 -14 -19 -38 -24 -24 -37 55 -53 73 -15 89 20 19 41 -44 14 -44 14 9 31 110 33 180 100 166 157 -16 66 -51 103 -64 68 -5 -14 -18 -25 -28 -25 -11 0 -10 17 3 41 12 23 18 51 15 62 -4 11 -17 0 -29 -26z"/> <path d="M4191 6725 c-8 -35 -8 -73 -1 -85 7 -11 4 -20 -6 -20 -10 0 -29 -38 -43 -85 -14 -47 -34 -96 -46 -110 -25 -31 -2 -32 78 -5 34 13 74 50 96 91 l38 71 -51 104 -51 104 -14 -65z"/> <path d="M6420 6584 c0 -9 10 -26 22 -38 26 -26 8 -66 -30 -66 -36 0 -108 -84 -80 -94 12 -4 39 -20 60 -36 86 -65 -44 -29 -218 61 -55 28 -57 27 -85 -39 -27 -65 -32 -68 -108 -58 -49 7 -92 2 -110 -13 -24 -20 -42 -16 -92 20 -56 40 -71 42 -141 21 -79 -24 -109 -82 -43 -82 44 -1 98 -34 81 -50 -7 -7 -41 2 -76 20 -35 18 -78 27 -95 21 -18 -7 -37 -4 -44 7 -6 11 -27 7 -50 -10 -31 -22 -34 -33 -14 -53 20 -20 29 -19 44 5 10 17 19 26 20 20 1 -5 5 -26 9 -45 7 -40 -21 -66 -40 -35 -23 37 -50 -1 -50 -69 0 -76 34 -93 156 -77 50 7 87 1 105 -17 18 -17 84 -30 169 -33 76 -3 148 -14 158 -24 11 -11 33 1 56 31 57 72 118 61 223 -39 50 -48 107 -87 125 -85 57 5 51 -36 -9 -63 -50 -21 -67 -20 -121 10 l-64 36 -41 -56 c-31 -42 -48 -50 -67 -34 -37 31 -322 36 -352 6 -29 -29 -7 -126 30 -126 15 0 39 -15 55 -33 24 -30 22 -32 -26 -20 -48 11 -55 6 -67 -48 -25 -112 50 -156 100 -59 34 66 65 77 83 28 13 -32 -71 -128 -111 -128 -21 0 -33 -32 -53 -145 -9 -50 -6 -75 9 -75 12 0 22 8 22 17 0 30 149 203 174 203 14 0 62 -19 107 -43 88 -46 110 -48 329 -33 142 10 227 39 256 89 25 43 44 32 70 -41 14 -37 89 -134 168 -215 l142 -147 -11 72 c-6 39 -4 83 5 97 17 29 -228 281 -273 281 -14 0 -57 15 -95 33 -64 31 -78 31 -176 1 -58 -17 -144 -37 -190 -44 -46 -7 -94 -26 -107 -42 -35 -42 -99 -35 -99 10 0 21 14 43 30 49 18 7 30 0 30 -18 0 -23 7 -22 36 6 31 31 32 37 5 48 -26 11 -25 15 8 28 22 10 41 8 45 -4 8 -23 226 -12 253 13 18 17 -245 47 -527 59 -105 5 -107 6 -40 22 78 19 313 23 420 7 39 -5 109 -15 158 -21 48 -7 119 -33 158 -60 123 -83 99 -27 -45 105 -121 112 -133 128 -90 128 112 1 132 64 54 173 -47 67 -56 95 -45 145 13 62 -4 80 -42 42 -48 -48 -268 -49 -268 -2 0 34 -9 42 -37 33 -48 -15 -103 6 -103 40 0 24 -27 26 -125 11 -8 -1 -16 -18 -17 -37 -1 -21 -5 -25 -11 -10 -12 30 -87 34 -87 5 0 -11 -17 -20 -38 -20 -24 0 -42 -19 -50 -50 -7 -27 -20 -50 -29 -50 -20 0 -17 62 6 98 14 23 2 26 -65 15 -123 -20 -119 18 5 58 87 27 191 35 490 37 l381 2 0 54 c0 56 -67 136 -114 136 -39 0 -31 36 14 60 30 16 51 14 88 -11 46 -30 50 -29 71 9 19 35 13 44 -49 73 -38 19 -70 42 -70 51 0 10 -9 18 -20 18 -11 0 -20 -7 -20 -16z m-380 -485 c0 -52 -41 -95 -80 -85 -49 13 -50 22 -7 69 36 41 87 49 87 16z"/> <path d="M4744 6387 c9 -50 44 -53 98 -8 l48 40 -76 0 c-61 1 -76 -6 -70 -32z"/> <path d="M1900 6301 c0 -44 -72 -183 -107 -206 -13 -8 5 -10 40 -3 34 7 68 3 75 -9 14 -23 -18 -34 -153 -53 -95 -12 -123 -41 -64 -63 18 -7 41 -3 52 8 15 15 33 9 59 -17 42 -42 67 -44 193 -20 47 9 85 15 85 12 0 -2 -16 -23 -36 -46 -38 -44 -44 -172 -16 -324 21 -114 28 -200 14 -200 -6 0 -15 -61 -18 -135 -4 -74 -9 -161 -10 -193 -7 -102 42 -83 55 22 6 53 20 164 31 246 32 236 25 586 -12 702 -32 95 -68 147 -68 96 0 -13 -18 -4 -39 21 -39 45 -45 137 -9 125 10 -4 15 -22 11 -40 -4 -19 -1 -28 7 -20 8 7 36 5 62 -5 71 -27 59 9 -27 80 -86 71 -125 77 -125 22z"/> <path d="M1770 6280 c-7 -11 -2 -20 11 -20 13 0 18 -13 12 -30 -7 -16 -8 -30 -3 -30 17 0 90 69 90 84 0 23 -96 19 -110 -4z"/> <path d="M6950 5794 c16 -122 89 -293 90 -210 0 29 -9 59 -20 66 -11 7 -20 41 -21 76 0 35 -14 87 -31 114 -29 48 -29 46 -18 -46z"/> <path d="M1780 5819 c0 -13 -17 -16 -40 -9 -49 15 -76 -37 -41 -79 15 -17 18 -55 10 -101 -12 -65 -6 -81 53 -144 65 -67 66 -70 18 -57 -48 13 -48 12 -11 -18 26 -21 43 -24 52 -9 10 15 26 14 55 -4 56 -35 57 -32 69 142 12 162 -52 301 -110 243 -28 -28 -55 -30 -55 -3 0 11 14 20 30 20 17 0 30 9 30 20 0 11 -13 20 -30 20 -16 0 -30 -10 -30 -21z"/> <path d="M360 5780 c0 -60 204 -302 231 -275 7 6 -3 35 -22 64 -34 52 -34 53 8 65 34 8 39 17 21 38 -12 15 -32 22 -44 14 -12 -7 -16 -1 -9 18 8 21 -10 41 -57 63 -79 38 -128 42 -128 13z"/> <path d="M6634 5753 c-9 -23 -1 -54 23 -84 l37 -47 -2 57 c-1 31 -8 53 -15 49 -8 -5 -17 7 -21 27 -7 33 -8 33 -22 -2z"/> <path d="M814 5713 c-65 -20 -174 -173 -174 -245 0 -41 147 30 329 160 53 38 54 38 95 -3 l41 -41 60 69 c69 78 67 88 -10 73 -52 -10 -79 -46 -34 -46 12 0 15 -10 7 -23 -9 -14 -24 -4 -42 30 -31 60 -131 70 -272 26z"/> <path d="M7891 5622 c-8 -13 -9 -48 -2 -76 8 -31 4 -58 -10 -67 -14 -9 -1 -24 38 -41 76 -33 62 -58 -32 -58 -39 0 -65 -7 -57 -15 9 -8 48 -15 89 -15 60 0 72 -6 66 -38 -5 -29 3 -35 35 -27 23 6 42 4 42 -6 0 -9 41 -2 90 16 85 32 113 68 71 94 -11 7 -14 25 -8 42 8 19 -2 29 -28 29 -22 0 -62 18 -90 40 -28 22 -62 40 -74 40 -13 0 -44 24 -69 53 -32 38 -50 47 -61 29z"/> <path d="M1507 5035 c-8 -13 -17 -38 -18 -55 -16 -151 -15 -179 2 -179 10 1 16 22 13 48 -5 33 6 51 33 60 51 16 68 64 42 112 -23 45 -50 50 -72 14z"/> <path d="M7420 4910 c0 -17 18 -30 40 -30 22 0 40 -9 40 -19 0 -11 -15 -14 -33 -7 -23 9 -29 5 -19 -11 20 -32 62 -29 93 8 21 25 18 35 -13 59 -50 38 -108 38 -108 0z"/> <path d="M2780 4819 c0 -14 15 -42 33 -63 46 -50 -15 -102 -102 -86 -77 14 -68 8 114 -85 l155 -79 -12 142 c-14 180 -19 192 -66 192 -21 0 -42 -11 -47 -25 -7 -19 -16 -19 -42 2 -26 22 -33 23 -33 2z"/> <path d="M1455 4657 c-35 -13 -55 -35 -55 -60 0 -22 9 -34 20 -27 12 7 20 -14 20 -51 0 -48 -7 -61 -30 -52 -18 7 -30 0 -30 -18 0 -16 11 -29 23 -29 13 0 40 -15 61 -33 66 -61 142 106 102 226 -22 64 -37 70 -111 44z"/> <path d="M7008 4443 c29 -160 117 -344 151 -314 23 21 41 23 71 7 30 -16 26 -6 -15 37 -30 33 -55 70 -55 84 0 14 -7 21 -15 16 -8 -5 -16 14 -18 43 -2 28 -16 61 -31 73 -15 12 -44 44 -64 71 l-36 50 12 -67z"/> <path d="M1666 4420 c-58 -33 -114 -78 -125 -99 -24 -44 -134 -2 -145 56 -4 16 -47 -11 -111 -70 -112 -103 -131 -138 -64 -117 22 7 54 2 70 -11 23 -19 29 -18 29 9 0 17 11 33 25 34 14 0 39 5 55 9 86 23 187 16 170 -11 -7 -11 -39 -20 -71 -20 -59 0 -74 -26 -42 -76 12 -18 49 5 135 87 65 62 144 134 176 159 123 97 46 135 -102 50z"/> <path d="M7509 4171 c-37 -28 -36 -30 25 -30 70 -1 104 28 54 47 -40 15 -34 17 -79 -17z"/> <path d="M7200 3894 c0 -45 22 -94 42 -94 29 0 20 73 -12 100 -24 20 -30 19 -30 -6z"/> <path d="M704 3232 c-3 -49 4 -95 15 -102 12 -7 21 -32 22 -56 0 -42 2 -42 48 10 l48 54 30 -46 c64 -99 170 -160 140 -82 -8 23 4 30 51 30 83 0 78 28 -13 71 -41 19 -79 40 -85 47 -5 7 -30 23 -55 37 -25 14 -64 36 -88 50 -34 20 -44 20 -51 0 -5 -14 -18 -25 -28 -25 -12 0 -12 14 1 37 18 35 11 63 -17 63 -7 0 -15 -40 -18 -88z"/> <path d="M7304 3166 c-42 -20 -62 -42 -55 -60 6 -15 3 -23 -6 -18 -9 6 -31 -21 -49 -59 -19 -38 -25 -69 -15 -69 50 0 125 53 174 124 65 94 45 128 -49 82z"/> <path d="M585 2985 c-96 -6 -137 -31 -83 -49 13 -4 25 -41 27 -81 8 -125 144 -203 227 -130 19 17 62 37 97 44 71 15 157 91 102 91 -17 0 -36 -13 -42 -30 -7 -16 -27 -30 -46 -30 -26 0 -29 6 -13 22 22 22 -121 184 -152 174 -7 -2 -59 -7 -117 -11z"/> <path d="M2869 2599 c-22 -36 105 -98 204 -99 137 -1 24 81 -123 90 -11 1 -31 8 -44 16 -13 8 -29 5 -37 -7z"/> <path d="M3510 2286 c17 -39 30 -75 30 -81 0 -5 12 0 27 13 16 12 43 17 60 10 22 -8 33 -2 33 21 0 18 -9 28 -20 21 -11 -7 -20 2 -20 19 0 17 -2 31 -5 31 -3 0 -34 8 -70 19 l-64 18 29 -71z"/> <path d="M3321 2288 c38 -102 131 -149 170 -87 12 19 -84 119 -114 119 -8 0 -28 6 -46 12 -27 11 -29 5 -10 -44z"/> <path d="M3570 1980 c-7 -12 -19 -16 -28 -11 -8 5 -30 -18 -49 -50 -37 -63 -21 -76 57 -46 26 10 28 16 7 29 -14 9 -19 23 -11 31 9 9 33 5 55 -9 21 -13 52 -24 69 -24 50 0 34 59 -21 80 -64 25 -64 25 -79 0z"/> <path d="M3331 1842 c-6 -11 -2 -25 11 -33 16 -10 15 -19 -4 -30 -20 -13 -15 -22 22 -35 l49 -18 -80 -73 c-68 -63 -73 -73 -36 -73 53 0 113 89 111 164 -1 60 -54 129 -73 98z"/> <path d="M3545 1821 c-98 -16 -114 -28 -98 -70 17 -44 46 -38 59 11 9 33 25 40 78 36 89 -8 102 -16 75 -50 -25 -30 -13 -88 19 -88 22 0 50 70 52 135 2 49 -22 53 -185 26z"/> <path d="M2898 1643 l47 -37 -47 -33 c-46 -32 -46 -33 -4 -33 23 0 57 -5 74 -12 21 -8 32 -1 32 19 0 17 20 42 44 55 42 22 38 26 -55 50 -133 35 -148 34 -91 -9z"/> <path d="M3155 1565 c-55 -34 -71 -73 -37 -94 24 -15 122 65 122 100 0 37 -17 36 -85 -6z"/> <path d="M2860 1481 c0 -10 18 -24 39 -31 36 -11 161 -160 161 -192 0 -8 -28 -21 -61 -28 -39 -9 -58 -23 -52 -40 6 -14 -7 -31 -28 -36 -57 -15 -48 -47 24 -82 48 -24 70 -26 90 -9 23 18 25 15 15 -15 -11 -31 -9 -33 13 -13 31 29 34 43 51 258 l14 164 -78 21 c-96 27 -188 28 -188 3z"/> <path d="M3732 1464 c-20 -34 3 -64 50 -64 22 0 35 8 29 18 -6 10 0 23 14 29 15 6 11 10 -10 11 -19 1 -36 -9 -36 -23 -1 -14 -9 -8 -17 14 -10 26 -20 31 -30 15z"/> <path d="M3201 1445 c0 -8 12 -31 27 -50 32 -42 100 -26 83 19 -6 16 -11 33 -11 38 0 4 -22 8 -50 8 -27 0 -50 -7 -49 -15z"/> <path d="M5444 586 c-41 -8 -46 -19 -40 -91 9 -102 36 -114 84 -34 22 39 47 58 65 51 16 -6 34 2 40 19 10 25 17 24 44 -8 28 -32 37 -34 59 -10 30 32 -58 76 -120 60 -20 -5 -36 -1 -36 9 0 18 -16 19 -96 4z"/> <path d="M4001 541 c-15 -27 -15 -43 1 -52 24 -15 57 24 58 66 0 38 -36 30 -59 -14z"/> </g> </svg> 